<svg width="25" height="24" viewBox="0 0 25 24" fill="none" xmlns="http://www.w3.org/2000/svg">
<path d="M13.545 5.4593L19.0858 11H3.5C2.94771 11 2.5 11.4478 2.5 12C2.5 12.5523 2.94771 13 3.5 13H19.0858L13.545 18.5408C13.1545 18.9313 13.1545 19.5645 13.545 19.955C13.9356 20.3455 14.5687 20.3455 14.9592 19.955L22.2071 12.7072C22.5976 12.3166 22.5976 11.6835 22.2071 11.2929L14.9592 4.04509C14.7633 3.84915 14.5063 3.75152 14.2495 3.7522C14.1864 3.75237 14.1233 3.75847 14.0611 3.7705C13.872 3.80711 13.6915 3.89864 13.545 4.04509C13.1545 4.43561 13.1545 5.06878 13.545 5.4593Z" fill="black"/>
</svg>
