<svg width="25" height="25" viewBox="0 0 25 25" fill="none" xmlns="http://www.w3.org/2000/svg">
<path d="M13.545 5.87214L19.0858 11.4128H3.5C2.94771 11.4128 2.5 11.8606 2.5 12.4128C2.5 12.9651 2.94771 13.4128 3.5 13.4128H19.0858L13.545 18.9536C13.1545 19.3441 13.1545 19.9773 13.545 20.3678C13.9356 20.7583 14.5687 20.7583 14.9592 20.3678L22.2071 13.12C22.5976 12.7294 22.5976 12.0963 22.2071 11.7057L14.9592 4.45793C14.7633 4.26199 14.5063 4.16436 14.2495 4.16504C14.1864 4.16521 14.1233 4.17131 14.0611 4.18334C13.872 4.21995 13.6915 4.31148 13.545 4.45793C13.1545 4.84845 13.1545 5.48162 13.545 5.87214Z" fill="white"/>
</svg>
