<svg width="25" height="24" viewBox="0 0 25 24" fill="none" xmlns="http://www.w3.org/2000/svg">
<path d="M16.0906 10L13.5049 12.5857V3C13.5049 2.96548 13.5031 2.93137 13.4997 2.89776C13.4485 2.3935 13.0226 2 12.5049 2C11.9526 2 11.5049 2.44772 11.5049 3V12.5857L8.91908 9.99994C8.52856 9.60945 7.8954 9.60945 7.50487 9.99994C7.11435 10.3905 7.11435 11.0236 7.50487 11.4142L11.7978 15.7071C11.9853 15.8946 12.2397 16 12.5049 16C12.7701 16 13.0244 15.8946 13.212 15.7071L17.5049 11.4142C17.5537 11.3654 17.5964 11.3128 17.633 11.2573C17.8893 10.8692 17.8466 10.3417 17.5049 10C17.1143 9.60949 16.4812 9.60949 16.0906 10Z" fill="white"/>
<path d="M3.50488 19.9999C3.50488 19.4476 3.9526 18.9999 4.50488 18.9999H20.5049C21.0572 18.9999 21.5049 19.4476 21.5049 19.9999C21.5049 20.5522 21.0572 20.9999 20.5049 20.9999H4.50488C3.9526 20.9999 3.50488 20.5522 3.50488 19.9999Z" fill="white"/>
</svg>
