<svg width="24" height="24" viewBox="0 0 24 24" fill="none" xmlns="http://www.w3.org/2000/svg">
<path d="M5.46004 13.045L11.0008 18.5857V3C11.0008 2.44772 11.4485 2 12.0008 2C12.5531 2 13.0008 2.44772 13.0008 3V18.5857L18.5415 13.045C18.932 12.6545 19.5652 12.6545 19.9557 13.045C20.3462 13.4355 20.3462 14.0687 19.9557 14.4592L12.7079 21.7071C12.3174 22.0976 11.6842 22.0976 11.2937 21.7071L4.04582 14.4592C3.84989 14.2633 3.75226 14.0063 3.75293 13.7495C3.7531 13.6864 3.7592 13.6233 3.77124 13.5611C3.80785 13.372 3.89938 13.1915 4.04582 13.045C4.43635 12.6545 5.06951 12.6545 5.46004 13.045Z" fill="black"/>
</svg>
