<svg width="14" height="14" viewBox="0 0 14 14" fill="none" xmlns="http://www.w3.org/2000/svg">
<path d="M1.37759 6.49954L0.333415 7.7608C1.40437 8.40144 2.32806 9.03541 3.1045 9.6627C3.89432 10.2767 4.59714 10.9106 5.21293 11.5646C5.82873 12.2186 6.40436 12.9193 6.93984 13.6667L7.06032 13.6667C7.60918 12.9193 8.18482 12.2186 8.78723 11.5646C9.40303 10.9106 10.1058 10.2767 10.8957 9.6627C11.6855 9.03541 12.6092 8.40144 13.6667 7.7608L12.6226 6.49954C11.7792 7.04675 11.0161 7.60064 10.3334 8.1612C9.66407 8.70841 9.07505 9.25563 8.56635 9.80284C8.05764 10.3501 7.64265 10.8839 7.32137 11.4044C7.00008 11.925 6.7792 12.4255 6.65872 12.9059L7.34145 12.9059C7.22096 12.4255 7.00008 11.925 6.6788 11.4044C6.35751 10.8839 5.94252 10.3501 5.43382 9.80284C4.92511 9.25563 4.3294 8.70841 3.64667 8.1612C2.97732 7.60064 2.22097 7.04675 1.37759 6.49954ZM6.19687 0.333374L6.19687 7.44048C6.19687 8.28132 6.21695 9.01539 6.25711 9.64268C6.29727 10.27 6.34412 10.8372 6.39767 11.3444L7.00008 12.5456L7.60249 11.3444C7.65604 10.8372 7.70289 10.27 7.74305 9.64268C7.78321 9.01539 7.80329 8.28132 7.80329 7.44048L7.80329 0.333374L6.19687 0.333374Z" fill="white"/>
</svg>
