<svg width="20" height="20" viewBox="0 0 20 20" fill="none" xmlns="http://www.w3.org/2000/svg">
<path d="M4.16669 7.68232C4.16669 5.23935 4.16669 4.01787 4.80739 3.25893C5.44809 2.5 6.47929 2.5 8.54169 2.5H11.4584C13.5207 2.5 14.5519 2.5 15.1926 3.25893C15.8334 4.01787 15.8334 5.23935 15.8334 7.68232V13.5795C15.8334 15.8971 15.8334 17.0559 15.2177 17.4103C14.6021 17.7647 13.8329 17.0488 12.2944 15.6169L11.802 15.1587C10.9369 14.3536 10.5044 13.951 10 13.951C9.49564 13.951 9.0631 14.3536 8.19804 15.1587L7.70567 15.6169C6.16719 17.0488 5.39795 17.7647 4.78232 17.4103C4.16669 17.0559 4.16669 15.8971 4.16669 13.5795V7.68232Z" stroke="black"/>
</svg>
