<svg width="20" height="20" viewBox="0 0 20 20" fill="none" xmlns="http://www.w3.org/2000/svg">
<path d="M11.6666 5.83325V5.83325C11.6666 5.3686 11.6666 5.13627 11.6282 4.94307C11.4704 4.14969 10.8502 3.52949 10.0568 3.37168C9.86363 3.33325 9.6313 3.33325 9.16665 3.33325H7.33331C5.44769 3.33325 4.50489 3.33325 3.9191 3.91904C3.33331 4.50482 3.33331 5.44763 3.33331 7.33325V9.16659C3.33331 9.63124 3.33331 9.86357 3.37174 10.0568C3.52956 10.8501 4.14975 11.4703 4.94313 11.6282C5.13633 11.6666 5.36866 11.6666 5.83331 11.6666V11.6666" stroke="white"/>
<rect x="8.33331" y="8.33325" width="8.33333" height="8.33333" rx="2" stroke="white"/>
</svg>
