<svg width="22" height="22" viewBox="0 0 22 22" fill="none" xmlns="http://www.w3.org/2000/svg">
<path d="M2.21469 10.2179L0.583167 12.1886C2.25653 13.1896 3.6998 14.1802 4.91299 15.1603C6.14709 16.1196 7.24523 17.1102 8.20742 18.1321C9.1696 19.1539 10.069 20.2488 10.9057 21.4166L11.094 21.4166C11.9516 20.2488 12.851 19.1539 13.7923 18.1321C14.7544 17.1102 15.8526 16.1196 17.0867 15.1603C18.3208 14.1802 19.7641 13.1896 21.4165 12.1886L19.785 10.2179C18.4672 11.0729 17.2749 11.9384 16.2082 12.8142C15.1623 13.6693 14.242 14.5243 13.4471 15.3793C12.6523 16.2343 12.0038 17.0685 11.5018 17.8818C10.9998 18.6951 10.6547 19.4771 10.4665 20.2279L11.5332 20.2279C11.345 19.4771 10.9998 18.6951 10.4978 17.8818C9.99582 17.0685 9.34739 16.2343 8.55254 15.3793C7.7577 14.5243 6.82689 13.6693 5.76012 12.8142C4.71427 11.9384 3.53246 11.0729 2.21469 10.2179ZM9.74482 0.583251L9.74482 11.6881C9.74482 13.0019 9.77619 14.1489 9.83894 15.129C9.90169 16.1092 9.9749 16.9955 10.0586 17.788L10.9998 19.6648L11.9411 17.788C12.0248 16.9955 12.098 16.1092 12.1607 15.129C12.2235 14.1489 12.2549 13.0019 12.2549 11.6881L12.2549 0.583252L9.74482 0.583251Z" fill="black"/>
</svg>
