<svg width="32" height="32" viewBox="0 0 32 32" fill="none" xmlns="http://www.w3.org/2000/svg">
<path fill-rule="evenodd" clip-rule="evenodd" d="M19.1966 16.2732C19.2042 16.1831 19.208 16.092 19.208 16C19.208 14.2283 17.7718 12.792 16 12.792C15.908 12.792 15.8169 12.7959 15.7269 12.8035L16.9119 13.9885C17.3984 14.2094 17.7906 14.6016 18.0115 15.0881L19.1966 16.2732ZM13.9248 15.244C13.8389 15.4799 13.792 15.7345 13.792 16C13.792 17.2195 14.7806 18.208 16 18.208C16.2656 18.208 16.5202 18.1612 16.756 18.0752L17.5112 18.8305C17.0609 19.0714 16.5464 19.208 16 19.208C14.2283 19.208 12.792 17.7718 12.792 16C12.792 15.4536 12.9286 14.9391 13.1695 14.4888L13.9248 15.244Z" fill="black"/>
<path fill-rule="evenodd" clip-rule="evenodd" d="M19.1345 20.4538L18.3918 19.7111C17.6349 20.0802 16.8287 20.312 16 20.312C14.7508 20.312 13.5527 19.7851 12.4975 19.0555C11.4452 18.328 10.5726 17.4246 9.98491 16.7347C9.55747 16.2329 9.51587 16.1486 9.51587 16C9.51587 15.8514 9.55747 15.7671 9.98491 15.2653C10.4763 14.6884 11.167 13.9623 11.9952 13.3145L11.2833 12.6026C10.4271 13.2858 9.72247 14.0313 9.22365 14.6168L9.16585 14.6845C8.82966 15.0774 8.51587 15.4441 8.51587 16C8.51587 16.556 8.82966 16.9227 9.16585 17.3155L9.22365 17.3832C9.84283 18.1101 10.7792 19.0833 11.9287 19.8781C13.0753 20.6708 14.4716 21.312 16 21.312C17.1335 21.312 18.1943 20.9594 19.1345 20.4538ZM13.9747 11.0514C14.6138 10.8253 15.2928 10.688 16 10.688C17.5284 10.688 18.9248 11.3292 20.0713 12.122C21.2209 12.9168 22.1572 13.89 22.7764 14.6168L22.8342 14.6845C23.1704 15.0774 23.4842 15.4441 23.4842 16C23.4842 16.556 23.1704 16.9227 22.8342 17.3155L22.7764 17.3832C22.4559 17.7594 22.0504 18.2017 21.5744 18.651L20.8669 17.9436C21.3183 17.5194 21.7061 17.0975 22.0152 16.7347C22.4426 16.2329 22.4842 16.1486 22.4842 16C22.4842 15.8514 22.4426 15.7671 22.0152 15.2653C21.4275 14.5754 20.5548 13.672 19.5026 12.9445C18.4474 12.2149 17.2493 11.688 16 11.688C15.5846 11.688 15.1749 11.7462 14.7742 11.8508L13.9747 11.0514Z" fill="black"/>
<path d="M10.386 7.97998L23.2181 20.8121" stroke="black"/>
</svg>
