<svg width="85" height="85" viewBox="0 0 85 85" fill="none" xmlns="http://www.w3.org/2000/svg">
<path d="M65.5 66C49.5769 50.0769 35.4231 50.0769 19.5 66C35.4231 50.0769 35.4231 35.9231 19.5 20C35.4231 35.9231 49.5769 35.9231 65.5 20C49.5769 35.9231 49.5769 50.0769 65.5 66Z" fill="#4155F5"/>
<rect x="56.5" y="29" width="28" height="28" fill="black" fill-opacity="0.15"/>
<rect x="0.5" y="57" width="28" height="28" fill="black" fill-opacity="0.05"/>
<rect x="28.5" width="28" height="28" fill="black" fill-opacity="0.05"/>
<path d="M46.8169 63.5528C47.8169 63.0528 42.3167 47.9279 45.8167 47.0529C49.8167 46.0529 51.3169 59.5528 51.3169 59.5528C51.3169 59.5528 50.8169 54.5528 53.8169 54.5528C56.8169 54.5529 57 59.0528 57 59.0528C57 59.0528 57.317 54.5528 60.3169 55.0528C62.8357 55.4727 62.8873 58.0074 62.839 58.8096C62.9304 58.1938 63.4005 56.65 65.8169 57.0528C68.8169 57.5529 67.8169 65.0529 66.8169 67.5528C65.817 70.0528 63.3169 72.0529 62.8169 73.5528C62.317 75.0528 63.8169 77.0529 62.8169 77.5528C61.817 78.0528 49.817 78.5528 48.8169 77.5528C47.8169 76.5529 49.317 76.0528 48.8169 75.0528C48.3048 74.0288 45.3165 72.553 43.8165 69.6785C42.3165 66.8039 36.3474 61.5327 39.3169 59.5528C42.3165 57.5529 45.817 64.0528 46.8169 63.5528Z" fill="white" stroke="black"/>
<path d="M52.5 63L53.5 70.5M57 63V69.5M61.5 64L60.5 69.5" stroke="black"/>
</svg>
