<svg width="20" height="20" viewBox="0 0 20 20" fill="none" xmlns="http://www.w3.org/2000/svg">
<path d="M3.75 11.5834C3.75 10.0197 3.75 9.23784 4.16329 8.69923C4.26969 8.56056 4.39381 8.43644 4.53248 8.33004C5.07109 7.91675 5.85295 7.91675 7.41667 7.91675H12.5833C14.147 7.91675 14.9289 7.91675 15.4675 8.33004C15.6062 8.43644 15.7303 8.56056 15.8367 8.69923C16.25 9.23784 16.25 10.0197 16.25 11.5834V11.5834C16.25 13.929 16.25 15.1018 15.6301 15.9097C15.4705 16.1177 15.2843 16.3039 15.0763 16.4635C14.2684 17.0834 13.0956 17.0834 10.75 17.0834H9.25C6.90442 17.0834 5.73164 17.0834 4.92372 16.4635C4.71572 16.3039 4.52954 16.1177 4.36994 15.9097C3.75 15.1018 3.75 13.929 3.75 11.5834V11.5834Z" stroke="black"/>
<path d="M13.75 7.91675V6.66675C13.75 4.59568 12.0711 2.91675 10 2.91675V2.91675C7.92893 2.91675 6.25 4.59568 6.25 6.66675V7.91675" stroke="black" stroke-linecap="round"/>
</svg>
