<svg width="112" height="32" viewBox="0 0 112 32" fill="none" xmlns="http://www.w3.org/2000/svg">
<path d="M56 32C56 20.9231 51.0769 16 40 16C51.0769 16 56 11.0769 56 0C56 11.0769 60.9231 16 72 16C60.9231 16 56 20.9231 56 32Z" stroke="black"/>
<path d="M96 32C96 20.9231 91.0769 16 80 16C91.0769 16 96 11.0769 96 0C96 11.0769 100.923 16 112 16C100.923 16 96 20.9231 96 32Z" stroke="black"/>
<path d="M16 32C16 20.9231 11.0769 16 0 16C11.0769 16 16 11.0769 16 0C16 11.0769 20.9231 16 32 16C20.9231 16 16 20.9231 16 32Z" stroke="black"/>
</svg>
