<svg width="60" height="80" viewBox="0 0 60 80" fill="none" xmlns="http://www.w3.org/2000/svg">
<path d="M34 40.4522C30.2941 40.4522 29.1765 37.687 29.1765 32C29.1765 37.687 27.7647 40.4522 24 40.4522C27.8824 40.4522 29.1765 40.9739 29.1765 50C29.1765 40.8696 30.2353 40.4522 34 40.4522Z" stroke="black"/>
<path d="M23 19.6348C20.0353 19.6348 19.1412 17.7913 19.1412 14C19.1412 17.7913 18.0118 19.6348 15 19.6348C18.1059 19.6348 19.1412 19.9826 19.1412 26C19.1412 19.913 19.9882 19.6348 23 19.6348Z" stroke="black"/>
<path d="M13 31.6348C10.0353 31.6348 9.14118 29.7913 9.14118 26C9.14118 29.7913 8.01177 31.6348 5 31.6348C8.10588 31.6348 9.14118 31.9826 9.14118 38C9.14118 31.913 9.98824 31.6348 13 31.6348Z" stroke="black"/>
<path d="M54 33.6348C51.0353 33.6348 50.1412 31.7913 50.1412 28C50.1412 31.7913 49.0118 33.6348 46 33.6348C49.1059 33.6348 50.1412 33.9826 50.1412 40C50.1412 33.913 50.9882 33.6348 54 33.6348Z" stroke="black"/>
<circle cx="29.1414" cy="41.1414" r="14.6414" stroke="black"/>
<path d="M17 41C17 34.3726 22.3726 29 29 29C35.6274 29 41 34.3726 41 41C41 47.6274 35.6274 53 29 53C24.9849 53 21.4305 51.0281 19.2521 48" stroke="black"/>
<path fill-rule="evenodd" clip-rule="evenodd" d="M38.6726 51.8974L39.9841 53.2088L41.2089 51.984L39.8976 50.6727L40.6047 49.9656L41.916 51.2769L42.229 50.9639L42.5825 50.6104L42.9361 50.9639L51.8582 59.8861L51.1511 60.5932L42.5825 52.0246L40.0245 54.5827L50.3775 64.9357L49.6704 65.6428L38.9638 54.9362L38.6102 54.5827L38.9638 54.2291L39.277 53.9159L37.9655 52.6045L38.6726 51.8974Z" fill="black"/>
</svg>
