<svg width="149" height="31" viewBox="0 0 149 31" fill="none" xmlns="http://www.w3.org/2000/svg">
<path d="M14.5455 6.54545C14.4091 5.39394 13.8561 4.5 12.8864 3.86364C11.9167 3.22727 10.7273 2.90909 9.31818 2.90909C8.28788 2.90909 7.38636 3.07576 6.61364 3.40909C5.84849 3.74242 5.25 4.20076 4.81818 4.78409C4.39394 5.36742 4.18182 6.0303 4.18182 6.77273C4.18182 7.39394 4.32955 7.92803 4.625 8.375C4.92803 8.81439 5.31439 9.18182 5.78409 9.47727C6.25379 9.76515 6.74621 10.0038 7.26136 10.1932C7.77652 10.375 8.25 10.5227 8.68182 10.6364L11.0455 11.2727C11.6515 11.4318 12.3258 11.6515 13.0682 11.9318C13.8182 12.2121 14.5341 12.5947 15.2159 13.0795C15.9053 13.5568 16.4735 14.1705 16.9205 14.9205C17.3674 15.6705 17.5909 16.5909 17.5909 17.6818C17.5909 18.9394 17.2614 20.0758 16.6023 21.0909C15.9508 22.1061 14.9962 22.9129 13.7386 23.5114C12.4886 24.1098 10.9697 24.4091 9.18182 24.4091C7.51515 24.4091 6.07197 24.1402 4.85227 23.6023C3.64015 23.0644 2.68561 22.3144 1.98864 21.3523C1.29924 20.3902 0.909091 19.2727 0.818182 18H3.72727C3.80303 18.8788 4.09848 19.6061 4.61364 20.1818C5.13636 20.75 5.79545 21.1742 6.59091 21.4545C7.39394 21.7273 8.25758 21.8636 9.18182 21.8636C10.2576 21.8636 11.2235 21.6894 12.0795 21.3409C12.9356 20.9848 13.6136 20.4924 14.1136 19.8636C14.6136 19.2273 14.8636 18.4848 14.8636 17.6364C14.8636 16.8636 14.6477 16.2348 14.2159 15.75C13.7841 15.2652 13.2159 14.8712 12.5114 14.5682C11.8068 14.2652 11.0455 14 10.2273 13.7727L7.36364 12.9545C5.54545 12.4318 4.10606 11.6856 3.04545 10.7159C1.98485 9.74621 1.45455 8.47727 1.45455 6.90909C1.45455 5.60606 1.80682 4.4697 2.51136 3.5C3.22348 2.52273 4.17803 1.76515 5.375 1.22727C6.57955 0.681817 7.92424 0.40909 9.40909 0.40909C10.9091 0.40909 12.2424 0.678029 13.4091 1.21591C14.5758 1.74621 15.5 2.47348 16.1818 3.39773C16.8712 4.32197 17.2348 5.37121 17.2727 6.54545H14.5455ZM21.8608 30.5455V6.54545H24.4517V9.31818H24.7699C24.9669 9.01515 25.2396 8.62879 25.5881 8.15909C25.9441 7.68182 26.4517 7.25758 27.1108 6.88636C27.7775 6.50758 28.679 6.31818 29.8153 6.31818C31.285 6.31818 32.5805 6.68561 33.7017 7.42045C34.8229 8.1553 35.6979 9.19697 36.3267 10.5455C36.9555 11.8939 37.2699 13.4848 37.2699 15.3182C37.2699 17.1667 36.9555 18.7689 36.3267 20.125C35.6979 21.4735 34.8267 22.5189 33.7131 23.2614C32.5994 23.9962 31.3153 24.3636 29.8608 24.3636C28.7396 24.3636 27.8419 24.178 27.1676 23.8068C26.4934 23.428 25.9744 23 25.6108 22.5227C25.2472 22.0379 24.9669 21.6364 24.7699 21.3182H24.5426V30.5455H21.8608ZM24.4972 15.2727C24.4972 16.5909 24.6903 17.7538 25.0767 18.7614C25.4631 19.7614 26.0275 20.5455 26.7699 21.1136C27.5123 21.6742 28.4214 21.9545 29.4972 21.9545C30.6184 21.9545 31.554 21.6591 32.304 21.0682C33.0616 20.4697 33.6297 19.6667 34.0085 18.6591C34.3949 17.6439 34.5881 16.5152 34.5881 15.2727C34.5881 14.0455 34.3987 12.9394 34.0199 11.9545C33.6487 10.9621 33.0843 10.178 32.3267 9.60227C31.5767 9.01894 30.6335 8.72727 29.4972 8.72727C28.4063 8.72727 27.4896 9.00379 26.7472 9.55682C26.0047 10.1023 25.4441 10.8674 25.0653 11.8523C24.6866 12.8295 24.4972 13.9697 24.4972 15.2727ZM46.4972 24.4091C45.3911 24.4091 44.3873 24.2008 43.4858 23.7841C42.5843 23.3598 41.8684 22.75 41.3381 21.9545C40.8078 21.1515 40.5426 20.1818 40.5426 19.0455C40.5426 18.0455 40.7396 17.2348 41.1335 16.6136C41.5275 15.9848 42.054 15.4924 42.7131 15.1364C43.3722 14.7803 44.0994 14.5152 44.8949 14.3409C45.6979 14.1591 46.5047 14.0152 47.3153 13.9091C48.3759 13.7727 49.2358 13.6705 49.8949 13.6023C50.5616 13.5265 51.0464 13.4015 51.3494 13.2273C51.66 13.053 51.8153 12.75 51.8153 12.3182V12.2273C51.8153 11.1061 51.5085 10.2348 50.8949 9.61364C50.2888 8.99242 49.3684 8.68182 48.1335 8.68182C46.8532 8.68182 45.8494 8.96212 45.1222 9.52273C44.3949 10.0833 43.8835 10.6818 43.5881 11.3182L41.0426 10.4091C41.4972 9.34848 42.1032 8.52273 42.8608 7.93182C43.6259 7.33333 44.4593 6.91667 45.3608 6.68182C46.2699 6.43939 47.1638 6.31818 48.0426 6.31818C48.6032 6.31818 49.2472 6.38636 49.9744 6.52273C50.7093 6.65151 51.4176 6.92045 52.0994 7.32954C52.7888 7.73864 53.3608 8.35606 53.8153 9.18182C54.2699 10.0076 54.4972 11.1136 54.4972 12.5V24H51.8153V21.6364H51.679C51.4972 22.0152 51.1941 22.4205 50.7699 22.8523C50.3456 23.2841 49.7813 23.6515 49.0767 23.9545C48.3722 24.2576 47.5123 24.4091 46.4972 24.4091ZM46.9062 22C47.9669 22 48.8608 21.7917 49.5881 21.375C50.3229 20.9583 50.8759 20.4205 51.2472 19.7614C51.6259 19.1023 51.8153 18.4091 51.8153 17.6818V15.2273C51.7017 15.3636 51.4517 15.4886 51.0653 15.6023C50.6866 15.7083 50.2472 15.803 49.7472 15.8864C49.2547 15.9621 48.7737 16.0303 48.304 16.0909C47.8419 16.1439 47.4669 16.1894 47.179 16.2273C46.482 16.3182 45.8305 16.4659 45.2244 16.6705C44.6259 16.8674 44.1411 17.1667 43.7699 17.5682C43.4063 17.9621 43.2244 18.5 43.2244 19.1818C43.2244 20.1136 43.5691 20.8182 44.2585 21.2955C44.9555 21.7652 45.8381 22 46.9062 22ZM59.392 24V6.54545H61.983V9.18182H62.1648C62.483 8.31818 63.0587 7.61742 63.892 7.07954C64.7254 6.54167 65.6648 6.27273 66.7102 6.27273C66.9072 6.27273 67.1534 6.27651 67.4489 6.28409C67.7443 6.29167 67.9678 6.30303 68.1193 6.31818V9.04545C68.0284 9.02273 67.8201 8.98864 67.4943 8.94318C67.1761 8.89015 66.839 8.86364 66.483 8.86364C65.6345 8.86364 64.8769 9.04167 64.2102 9.39773C63.5511 9.74621 63.0284 10.2311 62.642 10.8523C62.2633 11.4659 62.0739 12.1667 62.0739 12.9545V24H59.392ZM73.7983 17.6364L73.7528 14.3182H74.2983L81.9347 6.54545H85.2528L77.1165 14.7727H76.8892L73.7983 17.6364ZM71.2983 24V0.727272H73.9801V24H71.2983ZM82.3892 24L75.571 15.3636L77.4801 13.5L85.7983 24H82.3892ZM93.8409 24.4091C92.7348 24.4091 91.7311 24.2008 90.8295 23.7841C89.928 23.3598 89.2121 22.75 88.6818 21.9545C88.1515 21.1515 87.8864 20.1818 87.8864 19.0455C87.8864 18.0455 88.0833 17.2348 88.4773 16.6136C88.8712 15.9848 89.3977 15.4924 90.0568 15.1364C90.7159 14.7803 91.4432 14.5152 92.2386 14.3409C93.0417 14.1591 93.8485 14.0152 94.6591 13.9091C95.7197 13.7727 96.5795 13.6705 97.2386 13.6023C97.9053 13.5265 98.3902 13.4015 98.6932 13.2273C99.0038 13.053 99.1591 12.75 99.1591 12.3182V12.2273C99.1591 11.1061 98.8523 10.2348 98.2386 9.61364C97.6326 8.99242 96.7121 8.68182 95.4773 8.68182C94.197 8.68182 93.1932 8.96212 92.4659 9.52273C91.7386 10.0833 91.2273 10.6818 90.9318 11.3182L88.3864 10.4091C88.8409 9.34848 89.447 8.52273 90.2045 7.93182C90.9697 7.33333 91.803 6.91667 92.7045 6.68182C93.6136 6.43939 94.5076 6.31818 95.3864 6.31818C95.947 6.31818 96.5909 6.38636 97.3182 6.52273C98.053 6.65151 98.7614 6.92045 99.4432 7.32954C100.133 7.73864 100.705 8.35606 101.159 9.18182C101.614 10.0076 101.841 11.1136 101.841 12.5V24H99.1591V21.6364H99.0227C98.8409 22.0152 98.5379 22.4205 98.1136 22.8523C97.6894 23.2841 97.125 23.6515 96.4205 23.9545C95.7159 24.2576 94.8561 24.4091 93.8409 24.4091ZM94.25 22C95.3106 22 96.2045 21.7917 96.9318 21.375C97.6667 20.9583 98.2197 20.4205 98.5909 19.7614C98.9697 19.1023 99.1591 18.4091 99.1591 17.6818V15.2273C99.0455 15.3636 98.7955 15.4886 98.4091 15.6023C98.0303 15.7083 97.5909 15.803 97.0909 15.8864C96.5985 15.9621 96.1174 16.0303 95.6477 16.0909C95.1856 16.1439 94.8106 16.1894 94.5227 16.2273C93.8258 16.3182 93.1742 16.4659 92.5682 16.6705C91.9697 16.8674 91.4848 17.1667 91.1136 17.5682C90.75 17.9621 90.5682 18.5 90.5682 19.1818C90.5682 20.1136 90.9129 20.8182 91.6023 21.2955C92.2992 21.7652 93.1818 22 94.25 22ZM107.099 24V0.727272H109.781V9.31818H110.009C110.205 9.01515 110.478 8.62879 110.827 8.15909C111.183 7.68182 111.69 7.25758 112.349 6.88636C113.016 6.50758 113.918 6.31818 115.054 6.31818C116.524 6.31818 117.819 6.68561 118.94 7.42045C120.062 8.1553 120.937 9.19697 121.565 10.5455C122.194 11.8939 122.509 13.4848 122.509 15.3182C122.509 17.1667 122.194 18.7689 121.565 20.125C120.937 21.4735 120.065 22.5189 118.952 23.2614C117.838 23.9962 116.554 24.3636 115.099 24.3636C113.978 24.3636 113.08 24.178 112.406 23.8068C111.732 23.428 111.213 23 110.849 22.5227C110.486 22.0379 110.205 21.6364 110.009 21.3182H109.69V24H107.099ZM109.736 15.2727C109.736 16.5909 109.929 17.7538 110.315 18.7614C110.702 19.7614 111.266 20.5455 112.009 21.1136C112.751 21.6742 113.66 21.9545 114.736 21.9545C115.857 21.9545 116.793 21.6591 117.543 21.0682C118.3 20.4697 118.868 19.6667 119.247 18.6591C119.634 17.6439 119.827 16.5152 119.827 15.2727C119.827 14.0455 119.637 12.9394 119.259 11.9545C118.887 10.9621 118.323 10.178 117.565 9.60227C116.815 9.01894 115.872 8.72727 114.736 8.72727C113.645 8.72727 112.728 9.00379 111.986 9.55682C111.243 10.1023 110.683 10.8674 110.304 11.8523C109.925 12.8295 109.736 13.9697 109.736 15.2727ZM129.293 0.727272V24H126.611V0.727272H129.293ZM141.523 24.3636C139.841 24.3636 138.39 23.9924 137.17 23.25C135.958 22.5 135.023 21.4545 134.364 20.1136C133.712 18.7652 133.386 17.197 133.386 15.4091C133.386 13.6212 133.712 12.0455 134.364 10.6818C135.023 9.31061 135.939 8.24242 137.114 7.47727C138.295 6.70455 139.674 6.31818 141.25 6.31818C142.159 6.31818 143.057 6.4697 143.943 6.77273C144.83 7.07576 145.636 7.56818 146.364 8.25C147.091 8.92424 147.67 9.81818 148.102 10.9318C148.534 12.0455 148.75 13.4167 148.75 15.0455V16.1818H135.295V13.8636H146.023C146.023 12.8788 145.826 12 145.432 11.2273C145.045 10.4545 144.492 9.8447 143.773 9.39773C143.061 8.95076 142.22 8.72727 141.25 8.72727C140.182 8.72727 139.258 8.99242 138.477 9.52273C137.705 10.0455 137.11 10.7273 136.693 11.5682C136.277 12.4091 136.068 13.3106 136.068 14.2727V15.8182C136.068 17.1364 136.295 18.2538 136.75 19.1705C137.212 20.0795 137.852 20.7727 138.67 21.25C139.489 21.7197 140.439 21.9545 141.523 21.9545C142.227 21.9545 142.864 21.8561 143.432 21.6591C144.008 21.4545 144.504 21.1515 144.92 20.75C145.337 20.3409 145.659 19.8333 145.886 19.2273L148.477 19.9545C148.205 20.8333 147.746 21.6061 147.102 22.2727C146.458 22.9318 145.663 23.447 144.716 23.8182C143.769 24.1818 142.705 24.3636 141.523 24.3636Z" fill="black"/>
</svg>
