<svg width="153" height="31" viewBox="0 0 153 31" fill="none" xmlns="http://www.w3.org/2000/svg">
<path d="M9.24 2.56C11.096 2.56 12.696 2.944 14.04 3.712C15.384 4.45867 16.504 5.568 17.4 7.04L15.256 8.704C14.4667 7.33867 13.5707 6.37867 12.568 5.824C11.5867 5.248 10.392 4.96 8.984 4.96C7.85333 4.96 6.91467 5.12 6.168 5.44C5.44267 5.76 4.90933 6.18667 4.568 6.72C4.22667 7.232 4.056 7.81867 4.056 8.48C4.056 9.22667 4.29067 9.888 4.76 10.464C5.22933 11.0187 6.168 11.456 7.576 11.776L12.152 12.8C14.1787 13.248 15.5867 13.9307 16.376 14.848C17.1867 15.744 17.592 16.864 17.592 18.208C17.592 19.4027 17.2507 20.4693 16.568 21.408C15.9067 22.3253 14.968 23.04 13.752 23.552C12.536 24.064 11.1067 24.32 9.464 24.32C7.928 24.32 6.57333 24.1173 5.4 23.712C4.248 23.2853 3.256 22.72 2.424 22.016C1.592 21.312 0.909333 20.5227 0.376 19.648L2.616 17.824C3.02133 18.6347 3.544 19.3493 4.184 19.968C4.824 20.5867 5.592 21.0667 6.488 21.408C7.40533 21.7493 8.45067 21.92 9.624 21.92C10.712 21.92 11.6507 21.792 12.44 21.536C13.2507 21.2587 13.8693 20.864 14.296 20.352C14.7227 19.8187 14.936 19.1787 14.936 18.432C14.936 17.7493 14.712 17.1413 14.264 16.608C13.816 16.0533 12.9733 15.6373 11.736 15.36L6.776 14.24C5.47467 13.9413 4.41867 13.536 3.608 13.024C2.81867 12.4907 2.24267 11.872 1.88 11.168C1.53867 10.4427 1.368 9.664 1.368 8.832C1.368 7.70133 1.67733 6.66667 2.296 5.728C2.936 4.768 3.84267 4 5.016 3.424C6.21067 2.848 7.61867 2.56 9.24 2.56ZM22.3198 30.72V8H24.5598L24.7838 11.904L24.4318 11.456C24.7091 10.7093 25.1251 10.0587 25.6798 9.504C26.2344 8.928 26.9064 8.48 27.6958 8.16C28.4851 7.84 29.3384 7.68 30.2558 7.68C31.5571 7.68 32.7518 8.01067 33.8398 8.672C34.9491 9.33333 35.8344 10.2827 36.4958 11.52C37.1571 12.7573 37.4878 14.2507 37.4878 16C37.4878 17.728 37.1464 19.2213 36.4638 20.48C35.8024 21.7173 34.9171 22.6667 33.8078 23.328C32.6984 23.9893 31.4824 24.32 30.1598 24.32C28.8371 24.32 27.6744 24 26.6718 23.36C25.6904 22.6987 24.9864 21.8667 24.5598 20.864L24.8798 20.384V30.72H22.3198ZM29.9038 22.08C31.4824 22.08 32.7091 21.5253 33.5838 20.416C34.4798 19.3067 34.9278 17.8347 34.9278 16C34.9278 14.1653 34.4904 12.6933 33.6158 11.584C32.7624 10.4747 31.5571 9.92 29.9998 9.92C28.9758 9.92 28.0798 10.176 27.3118 10.688C26.5438 11.1787 25.9464 11.8827 25.5198 12.8C25.0931 13.696 24.8798 14.7627 24.8798 16C24.8798 17.216 25.0824 18.2827 25.4878 19.2C25.9144 20.1173 26.5011 20.832 27.2478 21.344C28.0158 21.8347 28.9011 22.08 29.9038 22.08ZM51.7263 13.664C51.7263 12.4693 51.4063 11.552 50.7663 10.912C50.1263 10.2507 49.2196 9.92 48.0463 9.92C46.9369 9.92 45.9983 10.1653 45.2303 10.656C44.4623 11.1253 43.8969 11.8933 43.5343 12.96L41.4543 11.68C41.8809 10.4853 42.6703 9.52533 43.8223 8.8C44.9743 8.05333 46.4036 7.68 48.1103 7.68C49.2623 7.68 50.3076 7.88267 51.2463 8.288C52.1849 8.672 52.9209 9.26933 53.4543 10.08C54.0089 10.8693 54.2863 11.8933 54.2863 13.152V20.896C54.2863 21.664 54.6916 22.048 55.5023 22.048C55.9076 22.048 56.3023 21.9947 56.6863 21.888L56.5583 23.904C56.1316 24.1173 55.5769 24.224 54.8943 24.224C54.2756 24.224 53.7209 24.1067 53.2303 23.872C52.7396 23.6373 52.3556 23.2853 52.0783 22.816C51.8009 22.3253 51.6623 21.7173 51.6623 20.992V20.672L52.3023 20.768C52.0463 21.6 51.6089 22.2827 50.9903 22.816C50.3716 23.328 49.6783 23.712 48.9103 23.968C48.1423 24.2027 47.3849 24.32 46.6383 24.32C45.6996 24.32 44.8249 24.16 44.0143 23.84C43.2036 23.52 42.5529 23.04 42.0623 22.4C41.5929 21.7387 41.3583 20.928 41.3583 19.968C41.3583 18.7733 41.7529 17.792 42.5423 17.024C43.3529 16.2347 44.4729 15.7013 45.9023 15.424L52.2383 14.176V16.288L47.0863 17.344C46.0409 17.5573 45.2623 17.856 44.7503 18.24C44.2383 18.624 43.9823 19.1573 43.9823 19.84C43.9823 20.5013 44.2383 21.0453 44.7503 21.472C45.2836 21.8773 46.0303 22.08 46.9903 22.08C47.6089 22.08 48.1956 22.0053 48.7503 21.856C49.3263 21.6853 49.8383 21.44 50.2863 21.12C50.7343 20.7787 51.0863 20.3627 51.3423 19.872C51.5983 19.36 51.7263 18.7627 51.7263 18.08V13.664ZM60.5073 24V8H62.5873L62.9393 10.624C63.3873 9.64267 64.0379 8.90667 64.8913 8.416C65.7659 7.92533 66.8219 7.68 68.0593 7.68C68.3366 7.68 68.6353 7.70133 68.9553 7.744C69.2966 7.78667 69.5846 7.872 69.8193 8L69.3713 10.336C69.1366 10.2507 68.8806 10.1867 68.6033 10.144C68.3259 10.1013 67.9313 10.08 67.4193 10.08C66.7579 10.08 66.0859 10.272 65.4033 10.656C64.7419 11.04 64.1873 11.6267 63.7393 12.416C63.2913 13.184 63.0673 14.1653 63.0673 15.36V24H60.5073ZM87.6178 8L80.7058 14.912L80.0978 15.52L74.8498 20.768V17.568L84.3858 8H87.6178ZM76.1298 0.639999V24H73.5698V0.639999H76.1298ZM80.9298 13.6L88.0018 24H84.8978L78.7858 15.04L80.9298 13.6ZM100.758 13.664C100.758 12.4693 100.438 11.552 99.7975 10.912C99.1575 10.2507 98.2508 9.92 97.0775 9.92C95.9682 9.92 95.0295 10.1653 94.2615 10.656C93.4935 11.1253 92.9282 11.8933 92.5655 12.96L90.4855 11.68C90.9122 10.4853 91.7015 9.52533 92.8535 8.8C94.0055 8.05333 95.4348 7.68 97.1415 7.68C98.2935 7.68 99.3388 7.88267 100.278 8.288C101.216 8.672 101.952 9.26933 102.486 10.08C103.04 10.8693 103.318 11.8933 103.318 13.152V20.896C103.318 21.664 103.723 22.048 104.534 22.048C104.939 22.048 105.334 21.9947 105.718 21.888L105.59 23.904C105.163 24.1173 104.608 24.224 103.926 24.224C103.307 24.224 102.752 24.1067 102.262 23.872C101.771 23.6373 101.387 23.2853 101.11 22.816C100.832 22.3253 100.694 21.7173 100.694 20.992V20.672L101.334 20.768C101.078 21.6 100.64 22.2827 100.022 22.816C99.4028 23.328 98.7095 23.712 97.9415 23.968C97.1735 24.2027 96.4162 24.32 95.6695 24.32C94.7308 24.32 93.8562 24.16 93.0455 23.84C92.2348 23.52 91.5842 23.04 91.0935 22.4C90.6242 21.7387 90.3895 20.928 90.3895 19.968C90.3895 18.7733 90.7842 17.792 91.5735 17.024C92.3842 16.2347 93.5042 15.7013 94.9335 15.424L101.27 14.176V16.288L96.1175 17.344C95.0722 17.5573 94.2935 17.856 93.7815 18.24C93.2695 18.624 93.0135 19.1573 93.0135 19.84C93.0135 20.5013 93.2695 21.0453 93.7815 21.472C94.3148 21.8773 95.0615 22.08 96.0215 22.08C96.6402 22.08 97.2268 22.0053 97.7815 21.856C98.3575 21.6853 98.8695 21.44 99.3175 21.12C99.7655 20.7787 100.118 20.3627 100.374 19.872C100.63 19.36 100.758 18.7627 100.758 18.08V13.664ZM117.379 24.32C116.483 24.32 115.651 24.16 114.883 23.84C114.115 23.52 113.453 23.072 112.899 22.496C112.344 21.92 111.928 21.2693 111.651 20.544L112.003 20.096L111.779 24H109.539V0.639999H112.099V11.616L111.779 11.136C112.205 10.1333 112.92 9.312 113.923 8.672C114.947 8.01067 116.109 7.68 117.411 7.68C118.733 7.68 119.949 8.01067 121.059 8.672C122.168 9.33333 123.053 10.2827 123.715 11.52C124.376 12.7573 124.707 14.2507 124.707 16C124.707 17.728 124.365 19.2213 123.683 20.48C123.021 21.7173 122.136 22.6667 121.027 23.328C119.917 23.9893 118.701 24.32 117.379 24.32ZM117.123 22.08C118.701 22.08 119.928 21.5253 120.803 20.416C121.699 19.3067 122.147 17.8347 122.147 16C122.147 14.1653 121.709 12.6933 120.835 11.584C119.96 10.4747 118.733 9.92 117.155 9.92C116.152 9.92 115.267 10.176 114.499 10.688C113.752 11.2 113.165 11.9147 112.739 12.832C112.312 13.7493 112.099 14.8267 112.099 16.064C112.099 17.28 112.301 18.3467 112.707 19.264C113.133 20.16 113.72 20.8533 114.467 21.344C115.235 21.8347 116.12 22.08 117.123 22.08ZM132.033 0.639999V19.936C132.033 20.7467 132.182 21.312 132.481 21.632C132.78 21.9307 133.26 22.08 133.921 22.08C134.348 22.08 134.7 22.048 134.977 21.984C135.254 21.92 135.628 21.8027 136.097 21.632L135.681 23.872C135.34 24.0213 134.966 24.128 134.561 24.192C134.156 24.2773 133.74 24.32 133.313 24.32C132.012 24.32 131.041 23.968 130.401 23.264C129.782 22.56 129.473 21.4827 129.473 20.032V0.639999H132.033ZM146.07 24.32C144.556 24.32 143.201 23.9893 142.006 23.328C140.833 22.6667 139.916 21.7173 139.254 20.48C138.593 19.2213 138.262 17.728 138.262 16C138.262 14.272 138.593 12.7893 139.254 11.552C139.916 10.2933 140.822 9.33333 141.974 8.672C143.126 8.01067 144.438 7.68 145.91 7.68C147.404 7.68 148.673 8 149.718 8.64C150.785 9.28 151.596 10.1547 152.15 11.264C152.705 12.352 152.982 13.5787 152.982 14.944C152.982 15.3067 152.972 15.6373 152.95 15.936C152.929 16.2347 152.897 16.5013 152.854 16.736H139.926V14.464H151.734L150.422 14.72C150.422 13.184 149.996 12 149.142 11.168C148.31 10.336 147.212 9.92 145.846 9.92C144.801 9.92 143.894 10.1653 143.126 10.656C142.38 11.1253 141.793 11.8187 141.366 12.736C140.961 13.632 140.758 14.72 140.758 16C140.758 17.2587 140.972 18.3467 141.398 19.264C141.825 20.1813 142.422 20.8853 143.19 21.376C143.98 21.8453 144.918 22.08 146.006 22.08C147.18 22.08 148.129 21.856 148.854 21.408C149.601 20.96 150.198 20.352 150.646 19.584L152.662 20.768C152.257 21.4933 151.734 22.1227 151.094 22.656C150.476 23.1893 149.74 23.6053 148.886 23.904C148.054 24.1813 147.116 24.32 146.07 24.32Z" fill="black"/>
</svg>
