<svg width="24" height="25" viewBox="0 0 24 25" fill="none" xmlns="http://www.w3.org/2000/svg">
<path d="M12 21.5C14.0822 21.5 16.1 20.778 17.7095 19.4571C19.3191 18.1362 20.4209 16.298 20.8271 14.2558C21.2333 12.2136 20.9188 10.0938 19.9373 8.25743C18.9558 6.4211 17.3679 4.98191 15.4442 4.18508C13.5205 3.38826 11.38 3.28311 9.38744 3.88754C7.3949 4.49197 5.67358 5.76858 4.51677 7.49987C3.35997 9.23115 2.83925 11.31 3.04334 13.3822C3.24743 15.4543 4.1637 17.3916 5.63604 18.864" stroke="black" stroke-linecap="round"/>
<path d="M16 10.5L12.402 14.8175C11.7465 15.6042 11.4187 15.9976 10.9781 16.0176C10.5375 16.0375 10.1755 15.6755 9.45139 14.9514L8 13.5" stroke="black" stroke-linecap="round"/>
</svg>
