<svg width="24" height="25" viewBox="0 0 24 25" fill="none" xmlns="http://www.w3.org/2000/svg">
<path d="M14.1716 21.5H7C5.11438 21.5 4.17157 21.5 3.58579 20.9142C3 20.3284 3 19.3856 3 17.5V7.5C3 5.61438 3 4.67157 3.58579 4.08579C4.17157 3.5 5.11438 3.5 7 3.5H17C18.8856 3.5 19.8284 3.5 20.4142 4.08579C21 4.67157 21 5.61438 21 7.5V14.6716C21 15.0803 21 15.2847 20.9239 15.4685C20.8478 15.6522 20.7032 15.7968 20.4142 16.0858L15.5858 20.9142C15.2968 21.2032 15.1522 21.3478 14.9685 21.4239C14.7847 21.5 14.5803 21.5 14.1716 21.5Z" stroke="black"/>
<path d="M14 21.5V16.8333C14 15.7334 14 15.1834 14.3417 14.8417C14.6834 14.5 15.2334 14.5 16.3333 14.5H21" stroke="black"/>
</svg>
