<svg width="24" height="25" viewBox="0 0 24 25" fill="none" xmlns="http://www.w3.org/2000/svg">
<path d="M5 9.71878C5 6.78722 5 5.32144 5.76884 4.41072C6.53769 3.5 7.77513 3.5 10.25 3.5H13.75C16.2249 3.5 17.4623 3.5 18.2312 4.41072C19 5.32144 19 6.78722 19 9.71878V16.7953C19 19.5765 19 20.967 18.2612 21.3924C17.5225 21.8177 16.5994 20.9586 14.7532 19.2403L14.1624 18.6904C13.1243 17.7243 12.6053 17.2412 12 17.2412C11.3947 17.2412 10.8757 17.7243 9.83762 18.6904L9.24678 19.2403C7.4006 20.9586 6.47751 21.8177 5.73876 21.3924C5 20.967 5 19.5765 5 16.7953V9.71878Z" stroke="black"/>
</svg>
