<svg width="93" height="32" viewBox="0 0 93 32" fill="none" xmlns="http://www.w3.org/2000/svg">
<path d="M10.3107 30.184L10.7957 30.3763L14.0066 22.3174L13.5196 22.1251C12.0849 21.5522 10.8946 20.4973 10.1534 19.1419C9.41217 17.7865 9.16633 16.2152 9.45801 14.6981C9.74977 13.1812 10.5608 11.8131 11.7519 10.8293C12.9429 9.84547 14.4396 9.30737 15.9841 9.30737C17.529 9.30737 19.0255 9.8455 20.2167 10.8293C21.4077 11.8132 22.2188 13.1812 22.5105 14.6981C22.8022 16.2152 22.5564 17.7864 21.8151 19.1419C21.0739 20.4972 19.8837 21.5521 18.449 22.1251L17.964 22.3194L21.2021 30.3597L21.6871 30.1674C25.1333 28.7697 27.9527 26.1653 29.6189 22.8405C31.2849 19.5157 31.6838 15.6984 30.7406 12.101C29.7976 8.50396 27.5774 5.37302 24.4945 3.29329C21.4116 1.2135 17.6772 0.327158 13.9884 0.799851C10.2998 1.27257 6.90942 3.07193 4.45049 5.86172C1.99164 8.65158 0.632623 12.2412 0.627023 15.9599C0.617752 19.0308 1.53764 22.0329 3.26588 24.5716C4.99412 27.1101 7.44988 29.0668 10.3104 30.1838L10.3107 30.184ZM15.9552 1.70934C19.2259 1.69913 22.4003 2.81465 24.9456 4.86854C27.4911 6.9223 29.2523 9.78934 29.9336 12.9883C30.615 16.1872 30.175 19.5229 28.6875 22.436C27.2 25.3491 24.7555 27.6613 21.7646 28.9848L19.3082 22.8741C20.8793 22.1156 22.1461 20.8459 22.901 19.2731C23.6559 17.7004 23.8542 15.9179 23.4633 14.2173C23.0724 12.5171 22.1155 11.0003 20.7495 9.91494C19.3834 8.82985 17.6894 8.24089 15.9446 8.24473C14.2001 8.24858 12.5084 8.84494 11.1473 9.93608C9.78606 11.0272 8.83585 12.5484 8.45238 14.2505C8.06894 15.9525 8.27499 17.7342 9.03686 19.3036C9.79874 20.8729 11.0711 22.1372 12.6454 22.8886L10.212 29.0118C7.20956 27.7001 4.75116 25.3937 3.25062 22.4812C1.75009 19.5686 1.29926 16.2278 1.97417 13.0217C2.64897 9.81555 4.40822 6.94009 6.9555 4.87955C9.50278 2.81902 12.6824 1.69929 15.9587 1.70942L15.9552 1.70934Z" fill="black"/>
<path d="M41.634 4.23999C42.5113 4.23999 43.2673 4.43599 43.902 4.82799C44.546 5.21066 45.0407 5.75666 45.386 6.46599C45.7407 7.17532 45.918 8.01999 45.918 8.99999C45.918 9.97999 45.7407 10.8247 45.386 11.534C45.0407 12.2433 44.546 12.794 43.902 13.186C43.2673 13.5687 42.5113 13.76 41.634 13.76C40.7567 13.76 39.996 13.5687 39.352 13.186C38.7173 12.794 38.2227 12.2433 37.868 11.534C37.5227 10.8247 37.35 9.97999 37.35 8.99999C37.35 8.01999 37.5227 7.17532 37.868 6.46599C38.2227 5.75666 38.7173 5.21066 39.352 4.82799C39.996 4.43599 40.7567 4.23999 41.634 4.23999ZM41.634 5.28999C40.9993 5.28999 40.4487 5.43932 39.982 5.73799C39.5153 6.02732 39.156 6.45199 38.904 7.01199C38.652 7.56266 38.526 8.22532 38.526 8.99999C38.526 9.77466 38.652 10.442 38.904 11.002C39.156 11.5527 39.5153 11.9773 39.982 12.276C40.4487 12.5653 40.9993 12.71 41.634 12.71C42.278 12.71 42.8287 12.5653 43.286 12.276C43.7527 11.9773 44.112 11.5527 44.364 11.002C44.616 10.442 44.742 9.77466 44.742 8.99999C44.742 8.22532 44.616 7.56266 44.364 7.01199C44.112 6.45199 43.7527 6.02732 43.286 5.73799C42.8287 5.43932 42.278 5.28999 41.634 5.28999Z" fill="black"/>
<path d="M51.6447 4.37999C52.27 4.37999 52.8113 4.49666 53.2687 4.72999C53.7353 4.95399 54.0993 5.27599 54.3607 5.69599C54.622 6.11599 54.7527 6.61532 54.7527 7.19399C54.7527 7.77266 54.622 8.27199 54.3607 8.69199C54.0993 9.11199 53.7353 9.43866 53.2687 9.67199C52.8113 9.89599 52.27 10.008 51.6447 10.008H49.5027V13.62H48.3827V4.37999H51.6447ZM51.4767 8.95799C52.2047 8.95799 52.7367 8.80866 53.0727 8.50999C53.4087 8.20199 53.5767 7.76332 53.5767 7.19399C53.5767 6.61532 53.4087 6.17666 53.0727 5.87799C52.7367 5.57932 52.2047 5.42999 51.4767 5.42999H49.5027V8.95799H51.4767Z" fill="black"/>
<path d="M56.9276 13.62V4.37999H63.4096V5.42999H58.0476V8.41199H62.2196V9.46199H58.0476V12.57H63.6196V13.62H56.9276Z" fill="black"/>
<path d="M73.1073 4.37999V13.62H71.7213L67.8573 7.43199L66.8773 5.69599H66.8633L66.9193 7.09599V13.62H65.8553V4.37999H67.2413L71.0913 10.54L72.0853 12.318H72.0993L72.0433 10.904V4.37999H73.1073Z" fill="black"/>
<path d="M40.878 18.24C41.69 18.24 42.39 18.408 42.978 18.744C43.566 19.0707 44.056 19.556 44.448 20.2L43.51 20.928C43.1647 20.3307 42.7727 19.9107 42.334 19.668C41.9047 19.416 41.382 19.29 40.766 19.29C40.2713 19.29 39.8607 19.36 39.534 19.5C39.2167 19.64 38.9833 19.8267 38.834 20.06C38.6847 20.284 38.61 20.5407 38.61 20.83C38.61 21.1567 38.7127 21.446 38.918 21.698C39.1233 21.9407 39.534 22.132 40.15 22.272L42.152 22.72C43.0387 22.916 43.6547 23.2147 44 23.616C44.3547 24.008 44.532 24.498 44.532 25.086C44.532 25.6087 44.3827 26.0753 44.084 26.486C43.7947 26.8873 43.384 27.2 42.852 27.424C42.32 27.648 41.6947 27.76 40.976 27.76C40.304 27.76 39.7113 27.6713 39.198 27.494C38.694 27.3073 38.26 27.06 37.896 26.752C37.532 26.444 37.2333 26.0987 37 25.716L37.98 24.918C38.1573 25.2727 38.386 25.5853 38.666 25.856C38.946 26.1267 39.282 26.3367 39.674 26.486C40.0753 26.6353 40.5327 26.71 41.046 26.71C41.522 26.71 41.9327 26.654 42.278 26.542C42.6327 26.4207 42.9033 26.248 43.09 26.024C43.2767 25.7907 43.37 25.5107 43.37 25.184C43.37 24.8853 43.272 24.6193 43.076 24.386C42.88 24.1433 42.5113 23.9613 41.97 23.84L39.8 23.35C39.2307 23.2193 38.7687 23.042 38.414 22.818C38.0687 22.5847 37.8167 22.314 37.658 22.006C37.5087 21.6887 37.434 21.348 37.434 20.984C37.434 20.4893 37.5693 20.0367 37.84 19.626C38.12 19.206 38.5167 18.87 39.03 18.618C39.5527 18.366 40.1687 18.24 40.878 18.24Z" fill="black"/>
<path d="M50.6027 18.24C51.4801 18.24 52.2361 18.436 52.8707 18.828C53.5147 19.2107 54.0094 19.7567 54.3548 20.466C54.7094 21.1753 54.8868 22.02 54.8868 23C54.8868 23.98 54.7094 24.8247 54.3548 25.534C54.0094 26.2433 53.5147 26.794 52.8707 27.186C52.2361 27.5687 51.4801 27.76 50.6027 27.76C49.7254 27.76 48.9648 27.5687 48.3208 27.186C47.6861 26.794 47.1914 26.2433 46.8368 25.534C46.4914 24.8247 46.3187 23.98 46.3187 23C46.3187 22.02 46.4914 21.1753 46.8368 20.466C47.1914 19.7567 47.6861 19.2107 48.3208 18.828C48.9648 18.436 49.7254 18.24 50.6027 18.24ZM50.6027 19.29C49.9681 19.29 49.4174 19.4393 48.9508 19.738C48.4841 20.0273 48.1248 20.452 47.8728 21.012C47.6208 21.5627 47.4948 22.2253 47.4948 23C47.4948 23.7747 47.6208 24.442 47.8728 25.002C48.1248 25.5527 48.4841 25.9773 48.9508 26.276C49.4174 26.5653 49.9681 26.71 50.6027 26.71C51.2467 26.71 51.7974 26.5653 52.2548 26.276C52.7214 25.9773 53.0808 25.5527 53.3328 25.002C53.5848 24.442 53.7108 23.7747 53.7108 23C53.7108 22.2253 53.5848 21.5627 53.3328 21.012C53.0808 20.452 52.7214 20.0273 52.2548 19.738C51.7974 19.4393 51.2467 19.29 50.6027 19.29Z" fill="black"/>
<path d="M64.4214 18.38V24.176C64.4214 25.3613 64.1087 26.2573 63.4834 26.864C62.8581 27.4613 61.9621 27.76 60.7954 27.76C59.6381 27.76 58.7421 27.4613 58.1074 26.864C57.4821 26.2573 57.1694 25.3613 57.1694 24.176V18.38H58.2894V23.896C58.2894 24.8573 58.4901 25.5667 58.8914 26.024C59.3021 26.4813 59.9367 26.71 60.7954 26.71C61.6541 26.71 62.2841 26.4813 62.6854 26.024C63.0961 25.5667 63.3014 24.8573 63.3014 23.896V18.38H64.4214Z" fill="black"/>
<path d="M70.7635 18.38C71.7062 18.38 72.4622 18.6227 73.0315 19.108C73.6008 19.5933 73.8855 20.2513 73.8855 21.082C73.8855 21.9127 73.5962 22.5613 73.0175 23.028C72.4482 23.4853 71.6922 23.714 70.7495 23.714L70.6515 23.784H68.3835V27.62H67.2635V18.38H70.7635ZM70.7495 22.734C71.4122 22.734 71.9022 22.5987 72.2195 22.328C72.5462 22.048 72.7095 21.6327 72.7095 21.082C72.7095 20.5313 72.5462 20.1207 72.2195 19.85C71.9022 19.57 71.4122 19.43 70.7495 19.43H68.3835V22.734H70.7495ZM71.3935 22.958L74.4455 27.62H73.1155L70.4555 23.574L71.3935 22.958Z" fill="black"/>
<path d="M83.94 25.254C83.744 25.7767 83.464 26.2293 83.1 26.612C82.736 26.9853 82.3067 27.27 81.812 27.466C81.3267 27.662 80.7947 27.76 80.216 27.76C79.3387 27.76 78.578 27.5687 77.934 27.186C77.2994 26.794 76.8047 26.2433 76.45 25.534C76.1047 24.8247 75.932 23.98 75.932 23C75.932 22.02 76.1047 21.1753 76.45 20.466C76.8047 19.7567 77.2994 19.2107 77.934 18.828C78.578 18.436 79.3294 18.24 80.188 18.24C80.7854 18.24 81.3174 18.324 81.784 18.492C82.2507 18.6507 82.6474 18.8933 82.974 19.22C83.31 19.5373 83.576 19.9293 83.772 20.396L82.666 20.914C82.4607 20.382 82.162 19.9807 81.77 19.71C81.3874 19.43 80.888 19.29 80.272 19.29C79.6467 19.29 79.096 19.4393 78.62 19.738C78.144 20.0273 77.7707 20.4473 77.5 20.998C77.2387 21.5487 77.108 22.216 77.108 23C77.108 23.7747 77.234 24.442 77.486 25.002C77.738 25.5527 78.0974 25.9773 78.564 26.276C79.0307 26.5653 79.5814 26.71 80.216 26.71C80.832 26.71 81.3687 26.556 81.826 26.248C82.2834 25.9307 82.6147 25.4593 82.82 24.834L83.94 25.254Z" fill="black"/>
<path d="M86.0897 27.62V18.38H92.5717V19.43H87.2097V22.412H91.3817V23.462H87.2097V26.57H92.7817V27.62H86.0897Z" fill="black"/>
</svg>
