<svg width="60" height="80" viewBox="0 0 60 80" fill="none" xmlns="http://www.w3.org/2000/svg">
<line x1="9" y1="32.5" x2="52" y2="32.5" stroke="black"/>
<rect x="8.5" y="24.5" width="44" height="35" stroke="black"/>
<path d="M24 24C24 21.7909 22.2091 20 20 20C17.7909 20 16 21.7909 16 24C16 26.2091 17.7909 28 20 28" stroke="black"/>
<path d="M45 24C45 21.7909 43.2091 20 41 20C38.7909 20 37 21.7909 37 24C37 26.2091 38.7909 28 41 28" stroke="black"/>
<path fill-rule="evenodd" clip-rule="evenodd" d="M30 36.5C35.2467 36.5 39.5 40.7533 39.5 46C39.5 51.2467 35.2467 55.5 30 55.5C24.7533 55.5 20.5 51.2467 20.5 46C20.5 43.8035 21.2449 41.7821 22.4963 40.173L22.967 41.9295L23.9329 41.6706L23.1565 38.7729L23.027 38.2899L22.5441 38.4193L19.6463 39.1958L19.9051 40.1617L21.592 39.7097C20.2784 41.4628 19.5 43.641 19.5 46C19.5 51.799 24.201 56.5 30 56.5C35.799 56.5 40.5 51.799 40.5 46C40.5 40.201 35.799 35.5 30 35.5V36.5Z" fill="black"/>
</svg>
