<svg width="24" height="24" viewBox="0 0 24 24" fill="none" xmlns="http://www.w3.org/2000/svg">
<rect width="24" height="24" rx="2" fill="black" fill-opacity="0.15"/>
<path d="M12.0261 7.79C12.5981 7.79 13.0964 7.881 13.5211 8.063C13.9457 8.245 14.2751 8.505 14.5091 8.843C14.7517 9.181 14.8731 9.584 14.8731 10.052C14.8731 10.5547 14.7604 10.975 14.5351 11.313C14.3184 11.6423 14.0237 11.8937 13.6511 12.067C13.2871 12.2403 12.8797 12.353 12.4291 12.405V13.796H11.3501V11.846C11.9827 11.7507 12.4724 11.6337 12.8191 11.495C13.1744 11.3563 13.4214 11.183 13.5601 10.975C13.7074 10.767 13.7811 10.5113 13.7811 10.208C13.7811 9.90467 13.7117 9.64467 13.5731 9.428C13.4431 9.21133 13.2437 9.04667 12.9751 8.934C12.7064 8.82133 12.3641 8.765 11.9481 8.765C11.3761 8.765 10.9081 8.92533 10.5441 9.246C10.1887 9.558 9.97638 9.987 9.90705 10.533L8.98405 10C9.07938 9.558 9.26138 9.17233 9.53005 8.843C9.80738 8.505 10.1541 8.245 10.5701 8.063C10.9947 7.881 11.4801 7.79 12.0261 7.79ZM11.8701 14.94C12.1214 14.94 12.3251 15.018 12.4811 15.174C12.6371 15.33 12.7151 15.5337 12.7151 15.785C12.7151 16.0363 12.6371 16.24 12.4811 16.396C12.3251 16.552 12.1214 16.63 11.8701 16.63C11.6187 16.63 11.4151 16.552 11.2591 16.396C11.1031 16.24 11.0251 16.0363 11.0251 15.785C11.0251 15.5337 11.1031 15.33 11.2591 15.174C11.4151 15.018 11.6187 14.94 11.8701 14.94Z" fill="black"/>
</svg>
