<svg width="20" height="20" viewBox="0 0 20 20" fill="none" xmlns="http://www.w3.org/2000/svg">
<path d="M4.58334 10.4167V4.25C4.58334 4.0143 4.58334 3.89645 4.65657 3.82322C4.72979 3.75 4.84764 3.75 5.08334 3.75H8.3358C8.54017 3.75 8.64236 3.75 8.73425 3.78806C8.82613 3.82612 8.89839 3.89838 9.0429 4.04289L9.29045 4.29044C9.43497 4.43496 9.50722 4.50721 9.59911 4.54527C9.69099 4.58333 9.79318 4.58333 9.99756 4.58333H14.0817C14.3536 4.58333 14.4895 4.58333 14.5303 4.66856C14.5711 4.75379 14.4859 4.85968 14.3154 5.07145L12.2774 7.60313C12.1564 7.75341 12.0959 7.82854 12.0959 7.91667C12.0959 8.00479 12.1564 8.07993 12.2774 8.2302L14.3154 10.7619C14.4859 10.9737 14.5711 11.0795 14.5303 11.1648C14.4895 11.25 14.3536 11.25 14.0817 11.25H9.99756C9.79318 11.25 9.69099 11.25 9.59911 11.2119C9.50722 11.1739 9.43497 11.1016 9.29045 10.9571L9.0429 10.7096C8.89839 10.565 8.82613 10.4928 8.73425 10.4547C8.64236 10.4167 8.54017 10.4167 8.3358 10.4167H4.58334ZM4.58334 10.4167V15.4167" stroke="black" stroke-linecap="round"/>
</svg>
