<svg width="20" height="20" viewBox="0 0 20 20" fill="none" xmlns="http://www.w3.org/2000/svg">
<path d="M13.0553 14.1058L6.9964 11.0763M6.99638 8.96875L13.0553 5.9393M12.8125 15.1562C12.8125 13.8618 13.8618 12.8125 15.1562 12.8125C16.4507 12.8125 17.5 13.8618 17.5 15.1562C17.5 16.4507 16.4507 17.5 15.1562 17.5C13.8618 17.5 12.8125 16.4507 12.8125 15.1562ZM12.8125 4.84375C12.8125 3.54933 13.8618 2.5 15.1562 2.5C16.4507 2.5 17.5 3.54933 17.5 4.84375C17.5 6.13817 16.4507 7.1875 15.1562 7.1875C13.8618 7.1875 12.8125 6.13817 12.8125 4.84375ZM2.5 10C2.5 8.70558 3.54933 7.65625 4.84375 7.65625C6.13817 7.65625 7.1875 8.70558 7.1875 10C7.1875 11.2944 6.13817 12.3438 4.84375 12.3438C3.54933 12.3438 2.5 11.2944 2.5 10Z" stroke="black" stroke-linecap="round" stroke-linejoin="round"/>
</svg>
