<svg width="25" height="25" viewBox="0 0 25 25" fill="none" xmlns="http://www.w3.org/2000/svg">
<path d="M6.87792 3.11461C6.87792 4.49413 7.99288 5.60909 9.37241 5.60909H11.8669V3.11461C11.8669 1.73508 10.7519 0.620117 9.37241 0.620117C7.99288 0.620117 6.87792 1.73508 6.87792 3.11461Z" fill="white"/>
<path d="M11.8669 9.36973C11.8669 7.9902 10.7519 6.87524 9.37241 6.87524H3.11729C1.73776 6.87524 0.622803 7.9902 0.622803 9.36973C0.622803 10.7493 1.73776 11.8642 3.11729 11.8642H9.37241C10.7519 11.8642 11.8669 10.7493 11.8669 9.36973Z" fill="white"/>
<path d="M3.13609 18.1193C4.51562 18.1193 5.63058 17.0044 5.63058 15.6249V13.1304H3.13609C1.75656 13.1304 0.641602 14.2453 0.641602 15.6249C0.641602 17.0044 1.75656 18.1193 3.13609 18.1193Z" fill="white"/>
<path d="M9.37231 13.1304C7.99278 13.1304 6.87782 14.2453 6.87782 15.6249V21.8611C6.87782 23.2406 7.99278 24.3556 9.37231 24.3556C10.7518 24.3556 11.8668 23.2406 11.8668 21.8611V15.6249C11.8668 14.2453 10.7518 13.1304 9.37231 13.1304Z" fill="white"/>
<path d="M19.3693 9.36973C19.3693 7.9902 20.4842 6.87524 21.8638 6.87524C23.2433 6.87524 24.3583 7.9902 24.3583 9.36973C24.3583 10.7493 23.2433 11.8642 21.8638 11.8642H19.3693V9.36973Z" fill="white"/>
<path d="M18.122 9.36973C18.122 10.7493 17.0071 11.8642 15.6275 11.8642C14.248 11.8642 13.1331 10.7493 13.1331 9.36973V3.11461C13.1331 1.73508 14.248 0.620117 15.6275 0.620117C17.0071 0.620117 18.122 1.73508 18.122 3.11461V9.36973Z" fill="white"/>
<path d="M18.122 21.8611C18.122 20.4816 17.0071 19.3666 15.6275 19.3666H13.1331V21.8611C13.1331 23.2406 14.248 24.3556 15.6275 24.3556C17.0071 24.3556 18.122 23.2406 18.122 21.8611Z" fill="white"/>
<path d="M13.1331 15.6249C13.1331 17.0044 14.248 18.1193 15.6275 18.1193H21.8827C23.2622 18.1193 24.3772 17.0044 24.3772 15.6249C24.3772 14.2453 23.2622 13.1304 21.8827 13.1304H15.6275C14.248 13.1304 13.1331 14.2453 13.1331 15.6249Z" fill="white"/>
</svg>
