<svg width="24" height="24" viewBox="0 0 24 24" fill="none" xmlns="http://www.w3.org/2000/svg">
<path d="M6.19382 14.644C6.19382 15.804 5.25082 16.751 4.09082 16.751C2.93282 16.751 1.98682 15.804 1.98682 14.644C1.98682 13.484 2.93282 12.538 4.09082 12.538H6.19382V14.644ZM7.25482 14.644C7.25482 13.484 8.19882 12.538 9.35882 12.538C10.5148 12.538 11.4618 13.484 11.4618 14.644V19.918C11.4618 21.078 10.5158 22.024 9.35882 22.024C8.19882 22.024 7.25482 21.078 7.25482 19.918V14.644ZM9.35882 6.18895C8.19882 6.18895 7.25482 5.24095 7.25482 4.08195C7.25482 2.92295 8.19882 1.97595 9.35882 1.97595C10.5148 1.97595 11.4618 2.92195 11.4618 4.08195V6.18895H9.35882ZM9.35882 7.24895C10.5148 7.24895 11.4618 8.19595 11.4618 9.35595C11.4618 10.516 10.5158 11.462 9.35882 11.462H4.09182C2.93382 11.462 1.98782 10.516 1.98782 9.35595C1.98782 8.19595 2.93382 7.24895 4.09182 7.24895H9.35882ZM17.8058 9.35595C17.8058 8.19595 18.7488 7.24895 19.9088 7.24895C21.0668 7.24895 22.0128 8.19595 22.0128 9.35595C22.0128 10.516 21.0668 11.462 19.9088 11.462H17.8058V9.35595ZM16.7448 9.35595C16.7448 10.516 15.8008 11.462 14.6408 11.462C13.4848 11.462 12.5378 10.516 12.5378 9.35595V4.08195C12.5378 2.92195 13.4838 1.97595 14.6408 1.97595C15.8008 1.97595 16.7448 2.92195 16.7448 4.08195V9.35595ZM14.6408 17.811C15.8008 17.811 16.7448 18.759 16.7448 19.918C16.7448 21.077 15.8008 22.024 14.6408 22.024C13.4848 22.024 12.5378 21.078 12.5378 19.918V17.811H14.6408ZM14.6408 16.751C13.4848 16.751 12.5378 15.804 12.5378 14.644C12.5378 13.484 13.4838 12.538 14.6408 12.538H19.9088C21.0668 12.538 22.0128 13.484 22.0128 14.644C22.0128 15.804 21.0668 16.751 19.9088 16.751H14.6408Z" fill="white"/>
</svg>
