<svg width="56" height="56" viewBox="0 0 56 56" fill="none" xmlns="http://www.w3.org/2000/svg">
<path d="M23.5475 38C32.6042 38 37.5578 30.4967 37.5578 23.9898C37.5578 23.7767 37.5578 23.5645 37.5434 23.3533C38.507 22.6563 39.3389 21.7932 40 20.8045C39.1014 21.2029 38.148 21.4641 37.1718 21.5792C38.1998 20.9639 38.9692 19.996 39.3366 18.8557C38.3701 19.4293 37.3126 19.8335 36.2099 20.0509C35.4675 19.2615 34.4856 18.7387 33.4162 18.5636C32.3468 18.3884 31.2494 18.5706 30.294 19.082C29.3385 19.5933 28.5782 20.4053 28.1307 21.3923C27.6833 22.3792 27.5735 23.4862 27.8186 24.5418C25.8609 24.4436 23.9458 23.9348 22.1975 23.0485C20.4492 22.1622 18.9068 20.9182 17.6704 19.3971C17.0407 20.4811 16.8479 21.7644 17.1311 22.9856C17.4143 24.2068 18.1523 25.2741 19.1949 25.9703C18.4112 25.9473 17.6446 25.7359 16.96 25.3539V25.4163C16.9603 26.5532 17.3539 27.6549 18.0739 28.5347C18.7939 29.4145 19.7961 30.0181 20.9104 30.2432C20.1855 30.441 19.4249 30.4699 18.687 30.3277C19.0018 31.306 19.6144 32.1615 20.4392 32.7746C21.264 33.3877 22.2598 33.7278 23.2874 33.7472C22.2664 34.5497 21.0973 35.143 19.8469 35.4932C18.5964 35.8434 17.2892 35.9437 16 35.7882C18.2518 37.2332 20.8719 37.9997 23.5475 37.9962" fill="black"/>
</svg>
