<svg width="56" height="56" viewBox="0 0 56 56" fill="none" xmlns="http://www.w3.org/2000/svg">
<g clip-path="url(#clip0_1582_14741)">
<path d="M22.5007 18.759C22.5007 20.1385 23.6157 21.2535 24.9952 21.2535H27.4897V18.759C27.4897 17.3795 26.3747 16.2645 24.9952 16.2645C23.6157 16.2645 22.5007 17.3795 22.5007 18.759Z" fill="black"/>
<path d="M27.4897 25.0141C27.4897 23.6346 26.3747 22.5196 24.9952 22.5196H18.7401C17.3606 22.5196 16.2456 23.6346 16.2456 25.0141C16.2456 26.3937 17.3606 27.5086 18.7401 27.5086H24.9952C26.3747 27.5086 27.4897 26.3937 27.4897 25.0141Z" fill="black"/>
<path d="M18.7589 33.7638C20.1384 33.7638 21.2534 32.6488 21.2534 31.2693V28.7748H18.7589C17.3794 28.7748 16.2644 29.8897 16.2644 31.2693C16.2644 32.6488 17.3794 33.7638 18.7589 33.7638Z" fill="black"/>
<path d="M24.9951 28.7748C23.6156 28.7748 22.5006 29.8897 22.5006 31.2693V37.5055C22.5006 38.885 23.6156 40 24.9951 40C26.3746 40 27.4896 38.885 27.4896 37.5055V31.2693C27.4896 29.8897 26.3746 28.7748 24.9951 28.7748Z" fill="black"/>
<path d="M34.9921 25.0141C34.9921 23.6346 36.107 22.5196 37.4866 22.5196C38.8661 22.5196 39.9811 23.6346 39.9811 25.0141C39.9811 26.3937 38.8661 27.5086 37.4866 27.5086H34.9921V25.0141Z" fill="black"/>
<path d="M33.7448 25.0141C33.7448 26.3937 32.6299 27.5086 31.2503 27.5086C29.8708 27.5086 28.7559 26.3937 28.7559 25.0141V18.759C28.7559 17.3795 29.8708 16.2645 31.2503 16.2645C32.6299 16.2645 33.7448 17.3795 33.7448 18.759V25.0141Z" fill="black"/>
<path d="M33.7448 37.5055C33.7448 36.126 32.6299 35.011 31.2503 35.011H28.7559V37.5055C28.7559 38.885 29.8708 40 31.2503 40C32.6299 40 33.7448 38.885 33.7448 37.5055Z" fill="black"/>
<path d="M28.7559 31.2693C28.7559 32.6488 29.8708 33.7638 31.2503 33.7638H37.5055C38.885 33.7638 40 32.6488 40 31.2693C40 29.8897 38.885 28.7748 37.5055 28.7748H31.2503C29.8708 28.7748 28.7559 29.8897 28.7559 31.2693Z" fill="black"/>
</g>
<defs>
<clipPath id="clip0_1582_14741">
<rect width="23.7544" height="23.7354" fill="white" transform="translate(16.2456 16.2645)"/>
</clipPath>
</defs>
</svg>
