<svg width="56" height="56" viewBox="0 0 56 56" fill="none" xmlns="http://www.w3.org/2000/svg">
<g clip-path="url(#clip0_1582_14745)">
<path d="M28 16.5942C21.37 16.5942 16 21.9672 16 28.5942C16 33.8972 19.438 38.3942 24.205 39.9792C24.805 40.0922 25.025 39.7212 25.025 39.4022C25.025 39.1172 25.015 38.3622 25.01 37.3622C21.672 38.0862 20.968 35.7522 20.968 35.7522C20.422 34.3672 19.633 33.9972 19.633 33.9972C18.546 33.2532 19.717 33.2682 19.717 33.2682C20.922 33.3522 21.555 34.5042 21.555 34.5042C22.625 36.3392 24.364 35.8092 25.05 35.5022C25.158 34.7262 25.467 34.1972 25.81 33.8972C23.145 33.5972 20.344 32.5652 20.344 27.9672C20.344 26.6572 20.809 25.5872 21.579 24.7472C21.444 24.4442 21.039 23.2242 21.684 21.5712C21.684 21.5712 22.689 21.2492 24.984 22.8012C25.944 22.5342 26.964 22.4022 27.984 22.3962C29.004 22.4022 30.024 22.5342 30.984 22.8012C33.264 21.2492 34.269 21.5712 34.269 21.5712C34.914 23.2242 34.509 24.4442 34.389 24.7472C35.154 25.5872 35.619 26.6572 35.619 27.9672C35.619 32.5772 32.814 33.5922 30.144 33.8872C30.564 34.2472 30.954 34.9832 30.954 36.1072C30.954 37.7132 30.939 39.0032 30.939 39.3932C30.939 39.7082 31.149 40.0832 31.764 39.9632C36.565 38.3892 40 33.8892 40 28.5942C40 21.9672 34.627 16.5942 28 16.5942Z" fill="black"/>
</g>
<defs>
<clipPath id="clip0_1582_14745">
<rect width="24" height="23.4057" fill="white" transform="translate(16 16.5942)"/>
</clipPath>
</defs>
</svg>
