<svg width="56" height="56" viewBox="0 0 56 56" fill="none" xmlns="http://www.w3.org/2000/svg">
<g clip-path="url(#clip0_1582_14743)">
<path d="M21.3721 40H16.3964V23.9764H21.3721V40ZM18.8816 21.7907C17.2905 21.7907 16 20.4728 16 18.8817C16 18.1174 16.3036 17.3844 16.844 16.844C17.3844 16.3036 18.1174 16 18.8816 16C19.6459 16 20.3788 16.3036 20.9192 16.844C21.4596 17.3844 21.7632 18.1174 21.7632 18.8817C21.7632 20.4728 20.4721 21.7907 18.8816 21.7907ZM39.9946 40H35.0296V32.1998C35.0296 30.3409 34.9921 27.9569 32.4427 27.9569C29.8557 27.9569 29.4593 29.9766 29.4593 32.0659V40H24.4889V23.9764H29.2611V26.1622H29.3307C29.995 24.9032 31.6177 23.5746 34.0386 23.5746C39.0743 23.5746 40 26.8908 40 31.198V40H39.9946Z" fill="black"/>
</g>
<defs>
<clipPath id="clip0_1582_14743">
<rect width="24" height="24" fill="white" transform="translate(16 16)"/>
</clipPath>
</defs>
</svg>
