<svg width="20" height="20" viewBox="0 0 20 20" fill="none" xmlns="http://www.w3.org/2000/svg">
<path d="M11.6667 12.5L8.33337 15.8333L11.6667 19.1667" stroke="white"/>
<path d="M15.0519 7.08317C15.5949 8.02369 15.8645 9.09712 15.8305 10.1826C15.7965 11.2681 15.4601 12.3225 14.8593 13.2272C14.2584 14.1318 13.4169 14.8508 12.4296 15.3031C11.4423 15.7555 10.3483 15.9232 9.27076 15.7874" stroke="white" stroke-linecap="round"/>
<path d="M8.33329 7.5L11.6666 4.16667L8.33329 0.833334" stroke="white"/>
<path d="M4.94814 12.9168C4.39726 11.9627 4.12785 10.872 4.17113 9.77106C4.2144 8.67013 4.56857 7.60397 5.19266 6.69598C5.81674 5.788 6.6852 5.07532 7.69753 4.64044C8.70985 4.20557 9.82464 4.06628 10.9128 4.2387" stroke="white" stroke-linecap="round"/>
</svg>
