<svg width="223" height="56" viewBox="0 0 223 56" fill="none" xmlns="http://www.w3.org/2000/svg">
<path fill-rule="evenodd" clip-rule="evenodd" d="M0 1.09804L1.09804 0C10.5319 9.43387 19.3197 14.026 28 14.026C36.6803 14.026 45.4681 9.43387 54.902 0L56 1.09804C46.5661 10.5319 41.974 19.3197 41.974 28C41.974 36.6803 46.5661 45.4681 56 54.902L54.902 56C45.4681 46.5661 36.6803 41.974 28 41.974C19.3197 41.974 10.5319 46.5661 1.09804 56L0 54.902C9.43387 45.4681 14.026 36.6803 14.026 28C14.026 19.3197 9.43387 10.5319 0 1.09804Z" fill="#4155F5"/>
<path d="M77.24 17.56C79.096 17.56 80.696 17.944 82.04 18.712C83.384 19.4587 84.504 20.568 85.4 22.04L83.256 23.704C82.4667 22.3387 81.5707 21.3787 80.568 20.824C79.5867 20.248 78.392 19.96 76.984 19.96C75.8533 19.96 74.9147 20.12 74.168 20.44C73.4427 20.76 72.9093 21.1867 72.568 21.72C72.2267 22.232 72.056 22.8187 72.056 23.48C72.056 24.2267 72.2907 24.888 72.76 25.464C73.2293 26.0187 74.168 26.456 75.576 26.776L80.152 27.8C82.1787 28.248 83.5867 28.9307 84.376 29.848C85.1867 30.744 85.592 31.864 85.592 33.208C85.592 34.4027 85.2507 35.4693 84.568 36.408C83.9067 37.3253 82.968 38.04 81.752 38.552C80.536 39.064 79.1067 39.32 77.464 39.32C75.928 39.32 74.5733 39.1173 73.4 38.712C72.248 38.2853 71.256 37.72 70.424 37.016C69.592 36.312 68.9093 35.5227 68.376 34.648L70.616 32.824C71.0213 33.6347 71.544 34.3493 72.184 34.968C72.824 35.5867 73.592 36.0667 74.488 36.408C75.4053 36.7493 76.4507 36.92 77.624 36.92C78.712 36.92 79.6507 36.792 80.44 36.536C81.2507 36.2587 81.8693 35.864 82.296 35.352C82.7227 34.8187 82.936 34.1787 82.936 33.432C82.936 32.7493 82.712 32.1413 82.264 31.608C81.816 31.0533 80.9733 30.6373 79.736 30.36L74.776 29.24C73.4747 28.9413 72.4187 28.536 71.608 28.024C70.8187 27.4907 70.2427 26.872 69.88 26.168C69.5387 25.4427 69.368 24.664 69.368 23.832C69.368 22.7013 69.6773 21.6667 70.296 20.728C70.936 19.768 71.8427 19 73.016 18.424C74.2107 17.848 75.6187 17.56 77.24 17.56ZM90.3198 45.72V23H92.5598L92.7838 26.904L92.4318 26.456C92.7091 25.7093 93.1251 25.0587 93.6798 24.504C94.2344 23.928 94.9064 23.48 95.6958 23.16C96.4851 22.84 97.3384 22.68 98.2558 22.68C99.5571 22.68 100.752 23.0107 101.84 23.672C102.949 24.3333 103.834 25.2827 104.496 26.52C105.157 27.7573 105.488 29.2507 105.488 31C105.488 32.728 105.146 34.2213 104.464 35.48C103.802 36.7173 102.917 37.6667 101.808 38.328C100.698 38.9893 99.4824 39.32 98.1598 39.32C96.8371 39.32 95.6744 39 94.6718 38.36C93.6904 37.6987 92.9864 36.8667 92.5598 35.864L92.8798 35.384V45.72H90.3198ZM97.9038 37.08C99.4824 37.08 100.709 36.5253 101.584 35.416C102.48 34.3067 102.928 32.8347 102.928 31C102.928 29.1653 102.49 27.6933 101.616 26.584C100.762 25.4747 99.5571 24.92 97.9998 24.92C96.9758 24.92 96.0798 25.176 95.3118 25.688C94.5438 26.1787 93.9464 26.8827 93.5198 27.8C93.0931 28.696 92.8798 29.7627 92.8798 31C92.8798 32.216 93.0824 33.2827 93.4878 34.2C93.9144 35.1173 94.5011 35.832 95.2478 36.344C96.0158 36.8347 96.9011 37.08 97.9038 37.08ZM119.726 28.664C119.726 27.4693 119.406 26.552 118.766 25.912C118.126 25.2507 117.22 24.92 116.046 24.92C114.937 24.92 113.998 25.1653 113.23 25.656C112.462 26.1253 111.897 26.8933 111.534 27.96L109.454 26.68C109.881 25.4853 110.67 24.5253 111.822 23.8C112.974 23.0533 114.404 22.68 116.11 22.68C117.262 22.68 118.308 22.8827 119.246 23.288C120.185 23.672 120.921 24.2693 121.454 25.08C122.009 25.8693 122.286 26.8933 122.286 28.152V35.896C122.286 36.664 122.692 37.048 123.502 37.048C123.908 37.048 124.302 36.9947 124.686 36.888L124.558 38.904C124.132 39.1173 123.577 39.224 122.894 39.224C122.276 39.224 121.721 39.1067 121.23 38.872C120.74 38.6373 120.356 38.2853 120.078 37.816C119.801 37.3253 119.662 36.7173 119.662 35.992V35.672L120.302 35.768C120.046 36.6 119.609 37.2827 118.99 37.816C118.372 38.328 117.678 38.712 116.91 38.968C116.142 39.2027 115.385 39.32 114.638 39.32C113.7 39.32 112.825 39.16 112.014 38.84C111.204 38.52 110.553 38.04 110.062 37.4C109.593 36.7387 109.358 35.928 109.358 34.968C109.358 33.7733 109.753 32.792 110.542 32.024C111.353 31.2347 112.473 30.7013 113.902 30.424L120.238 29.176V31.288L115.086 32.344C114.041 32.5573 113.262 32.856 112.75 33.24C112.238 33.624 111.982 34.1573 111.982 34.84C111.982 35.5013 112.238 36.0453 112.75 36.472C113.284 36.8773 114.03 37.08 114.99 37.08C115.609 37.08 116.196 37.0053 116.75 36.856C117.326 36.6853 117.838 36.44 118.286 36.12C118.734 35.7787 119.086 35.3627 119.342 34.872C119.598 34.36 119.726 33.7627 119.726 33.08V28.664ZM128.507 39V23H130.587L130.939 25.624C131.387 24.6427 132.038 23.9067 132.891 23.416C133.766 22.9253 134.822 22.68 136.059 22.68C136.337 22.68 136.635 22.7013 136.955 22.744C137.297 22.7867 137.585 22.872 137.819 23L137.371 25.336C137.137 25.2507 136.881 25.1867 136.603 25.144C136.326 25.1013 135.931 25.08 135.419 25.08C134.758 25.08 134.086 25.272 133.403 25.656C132.742 26.04 132.187 26.6267 131.739 27.416C131.291 28.184 131.067 29.1653 131.067 30.36V39H128.507ZM155.618 23L148.706 29.912L148.098 30.52L142.85 35.768V32.568L152.386 23H155.618ZM144.13 15.64V39H141.57V15.64H144.13ZM148.93 28.6L156.002 39H152.898L146.786 30.04L148.93 28.6ZM168.758 28.664C168.758 27.4693 168.438 26.552 167.798 25.912C167.158 25.2507 166.251 24.92 165.078 24.92C163.968 24.92 163.03 25.1653 162.262 25.656C161.494 26.1253 160.928 26.8933 160.566 27.96L158.486 26.68C158.912 25.4853 159.702 24.5253 160.854 23.8C162.006 23.0533 163.435 22.68 165.142 22.68C166.294 22.68 167.339 22.8827 168.278 23.288C169.216 23.672 169.952 24.2693 170.486 25.08C171.04 25.8693 171.318 26.8933 171.318 28.152V35.896C171.318 36.664 171.723 37.048 172.534 37.048C172.939 37.048 173.334 36.9947 173.718 36.888L173.59 38.904C173.163 39.1173 172.608 39.224 171.926 39.224C171.307 39.224 170.752 39.1067 170.262 38.872C169.771 38.6373 169.387 38.2853 169.11 37.816C168.832 37.3253 168.694 36.7173 168.694 35.992V35.672L169.334 35.768C169.078 36.6 168.64 37.2827 168.022 37.816C167.403 38.328 166.71 38.712 165.942 38.968C165.174 39.2027 164.416 39.32 163.67 39.32C162.731 39.32 161.856 39.16 161.046 38.84C160.235 38.52 159.584 38.04 159.094 37.4C158.624 36.7387 158.39 35.928 158.39 34.968C158.39 33.7733 158.784 32.792 159.574 32.024C160.384 31.2347 161.504 30.7013 162.934 30.424L169.27 29.176V31.288L164.118 32.344C163.072 32.5573 162.294 32.856 161.782 33.24C161.27 33.624 161.014 34.1573 161.014 34.84C161.014 35.5013 161.27 36.0453 161.782 36.472C162.315 36.8773 163.062 37.08 164.022 37.08C164.64 37.08 165.227 37.0053 165.782 36.856C166.358 36.6853 166.87 36.44 167.318 36.12C167.766 35.7787 168.118 35.3627 168.374 34.872C168.63 34.36 168.758 33.7627 168.758 33.08V28.664ZM185.379 39.32C184.483 39.32 183.651 39.16 182.883 38.84C182.115 38.52 181.453 38.072 180.899 37.496C180.344 36.92 179.928 36.2693 179.651 35.544L180.003 35.096L179.779 39H177.539V15.64H180.099V26.616L179.779 26.136C180.205 25.1333 180.92 24.312 181.923 23.672C182.947 23.0107 184.109 22.68 185.411 22.68C186.733 22.68 187.949 23.0107 189.059 23.672C190.168 24.3333 191.053 25.2827 191.715 26.52C192.376 27.7573 192.707 29.2507 192.707 31C192.707 32.728 192.365 34.2213 191.683 35.48C191.021 36.7173 190.136 37.6667 189.027 38.328C187.917 38.9893 186.701 39.32 185.379 39.32ZM185.123 37.08C186.701 37.08 187.928 36.5253 188.803 35.416C189.699 34.3067 190.147 32.8347 190.147 31C190.147 29.1653 189.709 27.6933 188.835 26.584C187.96 25.4747 186.733 24.92 185.155 24.92C184.152 24.92 183.267 25.176 182.499 25.688C181.752 26.2 181.165 26.9147 180.739 27.832C180.312 28.7493 180.099 29.8267 180.099 31.064C180.099 32.28 180.301 33.3467 180.707 34.264C181.133 35.16 181.72 35.8533 182.467 36.344C183.235 36.8347 184.12 37.08 185.123 37.08ZM200.033 15.64V34.936C200.033 35.7467 200.182 36.312 200.481 36.632C200.78 36.9307 201.26 37.08 201.921 37.08C202.348 37.08 202.7 37.048 202.977 36.984C203.254 36.92 203.628 36.8027 204.097 36.632L203.681 38.872C203.34 39.0213 202.966 39.128 202.561 39.192C202.156 39.2773 201.74 39.32 201.313 39.32C200.012 39.32 199.041 38.968 198.401 38.264C197.782 37.56 197.473 36.4827 197.473 35.032V15.64H200.033ZM214.07 39.32C212.556 39.32 211.201 38.9893 210.006 38.328C208.833 37.6667 207.916 36.7173 207.254 35.48C206.593 34.2213 206.262 32.728 206.262 31C206.262 29.272 206.593 27.7893 207.254 26.552C207.916 25.2933 208.822 24.3333 209.974 23.672C211.126 23.0107 212.438 22.68 213.91 22.68C215.404 22.68 216.673 23 217.718 23.64C218.785 24.28 219.596 25.1547 220.15 26.264C220.705 27.352 220.982 28.5787 220.982 29.944C220.982 30.3067 220.972 30.6373 220.95 30.936C220.929 31.2347 220.897 31.5013 220.854 31.736H207.926V29.464H219.734L218.422 29.72C218.422 28.184 217.996 27 217.142 26.168C216.31 25.336 215.212 24.92 213.846 24.92C212.801 24.92 211.894 25.1653 211.126 25.656C210.38 26.1253 209.793 26.8187 209.366 27.736C208.961 28.632 208.758 29.72 208.758 31C208.758 32.2587 208.972 33.3467 209.398 34.264C209.825 35.1813 210.422 35.8853 211.19 36.376C211.98 36.8453 212.918 37.08 214.006 37.08C215.18 37.08 216.129 36.856 216.854 36.408C217.601 35.96 218.198 35.352 218.646 34.584L220.662 35.768C220.257 36.4933 219.734 37.1227 219.094 37.656C218.476 38.1893 217.74 38.6053 216.886 38.904C216.054 39.1813 215.116 39.32 214.07 39.32Z" fill="black"/>
</svg>
