<svg width="60" height="80" viewBox="0 0 60 80" fill="none" xmlns="http://www.w3.org/2000/svg">
<path d="M37 48.7826C26.9941 48.7826 23.9765 42.6377 23.9765 30C23.9765 42.6377 20.1647 48.7826 10 48.7826C20.4824 48.7826 23.9765 49.942 23.9765 70C23.9765 49.7101 26.8353 48.7826 37 48.7826Z" stroke="black"/>
<path d="M50 31.3913C44.8118 31.3913 43.2471 28.3188 43.2471 22C43.2471 28.3188 41.2706 31.3913 36 31.3913C41.4353 31.3913 43.2471 31.971 43.2471 42C43.2471 31.8551 44.7294 31.3913 50 31.3913Z" stroke="black"/>
<path d="M34 15.6348C31.0353 15.6348 30.1412 13.7913 30.1412 10C30.1412 13.7913 29.0118 15.6348 26 15.6348C29.1059 15.6348 30.1412 15.9826 30.1412 22C30.1412 15.913 30.9882 15.6348 34 15.6348Z" stroke="black"/>
</svg>
