<svg width="92" height="32" viewBox="0 0 92 32" fill="none" xmlns="http://www.w3.org/2000/svg">
<path d="M2.59805 0.345215L88.9611 0.497001C90.1695 0.497001 91.2469 0.318429 91.2469 2.90771L91.1397 31.3482H0.416504V2.80057C0.416504 1.52379 0.541504 0.345215 2.59805 0.345215Z" fill="#AAB2AB"/>
<path d="M89.7173 0H1.71131C0.767857 0 0 0.767857 0 1.71131V31.6131C0 31.8274 0.172619 32 0.386905 32H91.0417C91.2559 32 91.4286 31.8274 91.4286 31.6131V1.71131C91.4286 0.767857 90.6607 0 89.7173 0ZM1.71131 0.77381H89.7173C90.2351 0.77381 90.6548 1.19345 90.6548 1.71131C90.6548 1.71131 90.6548 13.747 90.6548 22.4524H27.756C25.4494 26.619 21.006 29.4494 15.9107 29.4494C10.8095 29.4494 6.36905 26.622 4.06548 22.4524H0.773809C0.773809 13.747 0.773809 1.71131 0.773809 1.71131C0.773809 1.19345 1.19345 0.77381 1.71131 0.77381Z" fill="black"/>
<path d="M26.3036 14.8958C26.3066 20.6339 21.6578 25.2857 15.9197 25.2886C10.1846 25.2946 5.52984 20.6458 5.52686 14.9077C5.52686 14.9047 5.52686 14.9017 5.52686 14.8958C5.52091 9.16067 10.1697 4.50591 15.9078 4.50293C21.6459 4.49996 26.3007 9.14579 26.3036 14.8839C26.3036 14.8869 26.3036 14.8928 26.3036 14.8958Z" fill="white"/>
<path d="M24.3599 6.43448C26.6635 8.73805 27.8152 11.5595 27.8152 14.8958C27.8152 18.2321 26.6813 21.0238 24.4194 23.2678C22.0146 25.6309 19.1754 26.8125 15.8986 26.8125C12.6605 26.8125 9.87179 25.6398 7.52953 23.2976C5.18429 20.9553 4.01465 18.1547 4.01465 14.8958C4.01465 11.6398 5.18429 8.81841 7.52953 6.43448C9.81227 4.13091 12.601 2.97913 15.8986 2.97913C19.2349 2.97913 22.0563 4.13091 24.3599 6.43448ZM9.08012 7.98508C7.13072 9.95234 6.15751 12.2559 6.15751 14.8988C6.15751 17.5416 7.12179 19.8273 9.04739 21.7529C10.976 23.6815 13.2706 24.6428 15.9343 24.6428C18.598 24.6428 20.9105 23.6696 22.8777 21.7232C24.7468 19.9166 25.6813 17.6398 25.6813 14.8988C25.6813 12.1785 24.7319 9.86901 22.8331 7.9702C20.9343 6.07436 18.6367 5.12496 15.9343 5.12496C13.2319 5.12496 10.9462 6.07734 9.08012 7.98508ZM14.2051 13.7381C13.9075 13.0892 13.4611 12.7648 12.8658 12.7648C11.8182 12.7648 11.2914 13.4702 11.2914 14.8839C11.2914 16.2976 11.8182 17.0059 12.8658 17.0059C13.5593 17.0059 14.0563 16.6607 14.3539 15.9702L15.8093 16.747C15.1158 17.9791 14.0742 18.5952 12.6873 18.5952C11.6158 18.5952 10.7587 18.2678 10.1129 17.6101C9.47001 16.9553 9.1456 16.0506 9.1456 14.8958C9.1456 13.7619 9.47893 12.8631 10.1426 12.1964C10.8063 11.5297 11.6367 11.1964 12.6277 11.1964C14.095 11.1964 15.1456 11.7738 15.7795 12.9315L14.2051 13.7381ZM21.0533 13.7381C20.7557 13.0892 20.3182 12.7648 19.7438 12.7648C18.6724 12.7648 18.1367 13.4702 18.1367 14.8839C18.1367 16.2976 18.6724 17.0059 19.7438 17.0059C20.4402 17.0059 20.9254 16.6607 21.2021 15.9702L22.6902 16.747C21.9968 17.9791 20.9581 18.5952 19.5742 18.5952C18.5027 18.5952 17.6486 18.2678 17.0027 17.6101C16.3629 16.9553 16.0385 16.0506 16.0385 14.8958C16.0385 13.7619 16.3658 12.8631 17.0206 12.1964C17.6724 11.5297 18.5027 11.1964 19.5146 11.1964C20.9789 11.1964 22.0266 11.7738 22.6605 12.9315L21.0533 13.7381Z" fill="black"/>
<path d="M47.6219 11.5982C47.6219 16.116 43.9582 19.7797 39.4374 19.7797C34.9195 19.7797 31.2559 16.116 31.2559 11.5982C31.2559 7.08032 34.9195 3.41663 39.4374 3.41663C43.9582 3.41663 47.6219 7.08032 47.6219 11.5982Z" fill="white"/>
<path d="M41.8067 9.2322C41.8067 8.91672 41.5508 8.66077 41.2353 8.66077H37.6222C37.3067 8.66077 37.0508 8.91672 37.0508 9.2322V12.8453H38.0597V17.1251H40.7978V12.8453H41.8067V9.2322Z" fill="black"/>
<path d="M40.6636 6.94935C40.6636 7.6309 40.113 8.18447 39.4285 8.18447C38.7469 8.18447 38.1934 7.6309 38.1934 6.94935C38.1934 6.26781 38.7469 5.71423 39.4285 5.71423C40.113 5.71423 40.6636 6.26781 40.6636 6.94935Z" fill="black"/>
<path fill-rule="evenodd" clip-rule="evenodd" d="M39.4166 2.58337C36.9702 2.58337 34.8988 3.43754 33.2024 5.14587C31.4643 6.91373 30.5952 9.00302 30.5952 11.4197C30.5952 13.8334 31.4643 15.9108 33.2024 17.6459C34.9434 19.384 37.0149 20.253 39.4166 20.253C41.8512 20.253 43.9583 19.378 45.744 17.625C47.4256 15.9614 48.2649 13.8929 48.2649 11.4197C48.2649 8.94349 47.4107 6.85421 45.6994 5.14587C43.9881 3.43754 41.8958 2.58337 39.4166 2.58337ZM39.4405 4.17564C41.4464 4.17564 43.1488 4.88099 44.5476 6.29468C45.9643 7.69349 46.6726 9.40183 46.6726 11.4197C46.6726 13.4494 45.9791 15.1369 44.5922 16.4762C43.1339 17.9197 41.4166 18.6399 39.4405 18.6399C37.4643 18.6399 35.7619 17.9256 34.3303 16.4971C32.9018 15.0715 32.1875 13.378 32.1875 11.4197C32.1875 9.46135 32.9077 7.75302 34.3541 6.29468C35.741 4.88099 37.4345 4.17564 39.4405 4.17564Z" fill="black"/>
<path d="M36.878 24.9495C37.1161 24.9495 37.3364 24.9733 37.5358 25.0149C37.7322 25.0566 37.9048 25.1251 38.0447 25.2233C38.1875 25.3185 38.2947 25.4465 38.375 25.6072C38.4524 25.7679 38.4911 25.9643 38.4911 26.1995C38.4911 26.4554 38.4346 26.6667 38.3185 26.8364C38.2024 27.006 38.0298 27.1429 37.8036 27.253C38.1161 27.3423 38.3483 27.5001 38.503 27.7233C38.6578 27.9465 38.7352 28.2173 38.7352 28.5328C38.7352 28.7858 38.6846 29.006 38.5864 29.1935C38.4852 29.378 38.3512 29.5328 38.1846 29.6489C38.0179 29.7679 37.8245 29.8542 37.6102 29.9108C37.3959 29.9673 37.1756 29.9971 36.9495 29.9971H34.4971V24.9495H36.878ZM36.7352 26.9911C36.9346 26.9911 37.0953 26.9435 37.2233 26.8512C37.3512 26.756 37.4137 26.6042 37.4137 26.3929C37.4137 26.2739 37.3929 26.1786 37.3512 26.1042C37.3096 26.0268 37.253 25.9703 37.1816 25.9257C37.1102 25.884 37.0298 25.8542 36.9375 25.8393C36.8453 25.8215 36.75 25.8126 36.6489 25.8126H35.6102V26.9911H36.7352ZM36.8006 29.131C36.9078 29.131 37.012 29.1221 37.1102 29.1012C37.2114 29.0804 37.2977 29.0447 37.375 28.9941C37.4495 28.9465 37.509 28.878 37.5536 28.7917C37.5983 28.7084 37.6221 28.6012 37.6221 28.4673C37.6221 28.2084 37.5477 28.0239 37.4018 27.9137C37.256 27.8036 37.0625 27.7471 36.8215 27.7471H35.6102V29.131H36.8006Z" fill="white"/>
<path d="M38.9287 24.9495H40.1728L41.3543 26.9435L42.5299 24.9495H43.768L41.893 28.0596V29.9971H40.7799V28.0298L38.9287 24.9495Z" fill="white"/>
<path d="M75.0028 28.747C75.0623 28.8661 75.1426 28.9613 75.2468 29.0357C75.348 29.1072 75.4641 29.1607 75.601 29.1964C75.7379 29.2322 75.8778 29.25 76.0236 29.25C76.1218 29.25 76.229 29.2411 76.342 29.2262C76.4551 29.2083 76.5593 29.1786 76.6605 29.131C76.7587 29.0833 76.8391 29.0179 76.9075 28.9345C76.97 28.8542 77.0057 28.747 77.0057 28.622C77.0057 28.4851 76.9611 28.375 76.8748 28.2887C76.7885 28.2054 76.6724 28.1339 76.5325 28.0774C76.3897 28.0208 76.229 27.9702 76.0534 27.9286C75.8718 27.8869 75.6932 27.8393 75.5087 27.7887C75.3212 27.7411 75.1367 27.6816 74.9581 27.6131C74.7795 27.5476 74.6188 27.4583 74.479 27.3482C74.3361 27.2411 74.223 27.1042 74.1367 26.9435C74.0504 26.7798 74.0057 26.5833 74.0057 26.3542C74.0057 26.0923 74.0623 25.8691 74.1724 25.6786C74.2825 25.4881 74.4254 25.3274 74.604 25.1994C74.7825 25.0744 74.9879 24.9792 75.2141 24.9167C75.4373 24.8572 75.6635 24.8274 75.8897 24.8274C76.1545 24.8274 76.4075 24.8572 76.6486 24.9137C76.8926 24.9732 77.1069 25.0685 77.2944 25.2024C77.4849 25.3333 77.6337 25.503 77.7438 25.7054C77.854 25.9137 77.9105 26.1607 77.9105 26.4524H76.8331C76.8242 26.3006 76.7915 26.1756 76.7379 26.0774C76.6843 25.9792 76.6129 25.9018 76.5236 25.8452C76.4343 25.7887 76.3331 25.747 76.217 25.7262C76.104 25.7024 75.976 25.6905 75.842 25.6905C75.7528 25.6905 75.6635 25.6994 75.5742 25.7173C75.4849 25.7381 75.4045 25.7708 75.3331 25.8155C75.2587 25.8631 75.1992 25.9226 75.1516 25.9941C75.1069 26.0655 75.0831 26.1548 75.0831 26.2619C75.0831 26.3601 75.101 26.4405 75.1367 26.503C75.1754 26.5625 75.2498 26.622 75.3599 26.6726C75.473 26.7232 75.6248 26.7768 75.8182 26.8274C76.0147 26.878 76.2706 26.9464 76.5861 27.0268C76.6784 27.0447 76.8093 27.0804 76.976 27.128C77.1426 27.1786 77.3093 27.256 77.473 27.3661C77.6397 27.4732 77.7795 27.6191 77.9016 27.8006C78.0206 27.9822 78.0801 28.2143 78.0801 28.497C78.0801 28.7262 78.0355 28.9405 77.9462 29.1399C77.8569 29.3363 77.723 29.5089 77.5474 29.6518C77.3718 29.7947 77.1516 29.9077 76.8897 29.9881C76.6278 30.0685 76.3272 30.1072 75.9819 30.1072C75.7051 30.1072 75.4343 30.0744 75.1724 30.006C74.9105 29.9375 74.6813 29.8304 74.4819 29.6816C74.2795 29.5357 74.1218 29.3482 74.0028 29.122C73.8867 28.8958 73.8301 28.628 73.8331 28.3185H74.9105C74.9105 28.4881 74.9403 28.631 75.0028 28.747Z" fill="white"/>
<path d="M81.2531 24.9495L83.14 29.9971H81.9883L81.6073 28.8721H79.7204L79.3246 29.9971H78.2085L80.1162 24.9495H81.2531ZM81.3186 28.0447L80.6817 26.1935H80.6668L80.0121 28.0447H81.3186Z" fill="white"/>
<path d="M55.2531 24.9495L57.3602 28.3364H57.3721V24.9495H58.4138V29.9971H57.3037L55.2025 26.6191H55.1876V29.9971H54.1489V24.9495H55.2531Z" fill="white"/>
<path d="M62.6248 26.2947C62.5594 26.1875 62.476 26.0952 62.3778 26.0149C62.2796 25.9345 62.1665 25.872 62.0415 25.8274C61.9165 25.7827 61.7856 25.7619 61.6486 25.7619C61.3986 25.7619 61.1873 25.8095 61.0117 25.9048C60.8391 26.003 60.6963 26.131 60.5891 26.2947C60.482 26.4554 60.4016 26.6399 60.351 26.8482C60.3034 27.0566 60.2766 27.2708 60.2766 27.4911C60.2766 27.7024 60.3034 27.9107 60.351 28.1101C60.4016 28.3095 60.482 28.4911 60.5891 28.6488C60.6963 28.8095 60.8391 28.9375 61.0117 29.0357C61.1873 29.131 61.3986 29.1786 61.6486 29.1786C61.9879 29.1786 62.2528 29.0774 62.4433 28.8691C62.6367 28.6607 62.7528 28.3869 62.7945 28.0476H63.8689C63.8421 28.3631 63.7677 28.6488 63.6486 28.9048C63.5326 29.1577 63.3748 29.375 63.1844 29.5536C62.9909 29.7351 62.7647 29.872 62.5058 29.9673C62.2469 30.0595 61.9611 30.1072 61.6486 30.1072C61.2617 30.1072 60.9165 30.0417 60.607 29.9048C60.2975 29.7738 60.0385 29.5863 59.8242 29.3512C59.6129 29.1161 59.4492 28.8393 59.3361 28.5208C59.2231 28.2024 59.1665 27.8601 59.1665 27.4911C59.1665 27.1131 59.2231 26.7649 59.3361 26.4405C59.4492 26.1191 59.6129 25.8363 59.8242 25.5952C60.0385 25.3572 60.2975 25.1667 60.607 25.0298C60.9165 24.8929 61.2617 24.8274 61.6486 24.8274C61.9284 24.8274 62.1903 24.8661 62.4373 24.9464C62.6844 25.0268 62.9076 25.1429 63.101 25.2976C63.2975 25.4494 63.4582 25.6399 63.5861 25.8661C63.7141 26.0923 63.7945 26.3512 63.8272 26.6429H62.7528C62.732 26.5179 62.6903 26.3988 62.6248 26.2947Z" fill="white"/>
<path d="M87.2974 11.4137C87.3034 15.8661 83.6932 19.4792 79.2409 19.4851C74.7855 19.4851 71.1724 15.8809 71.1694 11.4256C71.1694 11.4226 71.1694 11.4167 71.1694 11.4137C71.1665 6.96129 74.7736 3.3482 79.229 3.34522C83.6813 3.33927 87.2944 6.94939 87.2974 11.4018C87.2974 11.4047 87.2974 11.4107 87.2974 11.4137Z" fill="white"/>
<path d="M79.1755 2.58032C76.7291 2.58032 74.6576 3.43449 72.9612 5.13985C71.2231 6.9077 70.3511 8.99997 70.3511 11.4137C70.3511 13.8273 71.2231 15.9047 72.9612 17.6428C74.7023 19.3809 76.7737 20.247 79.1755 20.247C81.61 20.247 83.7171 19.372 85.4999 17.619C87.1814 15.9553 88.0237 13.8869 88.0237 11.4137C88.0237 8.94044 87.1665 6.84818 85.4582 5.13985C83.7469 3.43449 81.6546 2.58032 79.1755 2.58032ZM79.1993 4.16961C81.2023 4.16961 82.9046 4.87497 84.3064 6.29163C85.7231 7.68747 86.4285 9.3958 86.4285 11.4137C86.4285 13.4464 85.738 15.1309 84.3511 16.4732C82.8927 17.9137 81.1725 18.6369 79.1993 18.6369C77.2231 18.6369 75.5207 17.9226 74.0892 16.494C72.6606 15.0654 71.9433 13.372 71.9433 11.4137C71.9433 9.45532 72.6666 7.74699 74.113 6.29163C75.4969 4.87497 77.1933 4.16961 79.1993 4.16961Z" fill="black"/>
<path d="M75.2589 10.1667C75.6131 7.94348 77.1756 6.75598 79.1399 6.75598C81.9583 6.75598 83.6786 8.8036 83.6786 11.5328C83.6786 14.1935 81.8482 16.2619 79.0952 16.2619C77.1994 16.2619 75.503 15.0982 75.1935 12.8066H77.4196C77.4851 13.9971 78.256 14.4137 79.3601 14.4137C80.6131 14.4137 81.4315 13.2471 81.4315 11.4643C81.4315 9.59527 80.7262 8.60419 79.4018 8.60419C78.4345 8.60419 77.5952 8.95836 77.4196 10.1667L78.0655 10.1637L76.3155 11.9137L74.5625 10.1637L75.2589 10.1667Z" fill="black"/>
<path d="M67.5269 11.4136C67.5298 15.9523 63.8542 19.6339 59.3155 19.6369C54.7769 19.6398 51.0923 15.9642 51.0894 11.4256C51.0894 11.4226 51.0894 11.4166 51.0894 11.4136C51.0864 6.87496 54.765 3.19341 59.3036 3.19043C63.8423 3.18746 67.5239 6.86305 67.5269 11.4017C67.5269 11.4047 67.5269 11.4107 67.5269 11.4136Z" fill="white"/>
<path d="M59.2975 2.58032C61.7737 2.58032 63.866 3.43449 65.5773 5.13985C67.2886 6.84818 68.1428 8.94044 68.1428 11.4137C68.1428 13.8869 67.3035 15.9553 65.622 17.619C63.8392 19.372 61.7291 20.247 59.2975 20.247C56.8928 20.247 54.8214 19.3809 53.0833 17.6428C51.3422 15.9047 50.4731 13.8273 50.4731 11.4137C50.4731 8.99997 51.3422 6.9077 53.0833 5.13985C54.7797 3.43449 56.8481 2.58032 59.2975 2.58032ZM52.4612 9.04163C52.1964 9.78568 52.0654 10.5773 52.0654 11.4137C52.0654 13.372 52.7797 15.0654 54.2112 16.494C55.6398 17.9226 57.3422 18.6369 59.3184 18.6369C61.2946 18.6369 63.0118 17.9137 64.4731 16.4702C64.9612 16 65.363 15.4851 65.6785 14.9256L62.3481 13.4434C62.122 14.5625 61.1249 15.3214 59.9166 15.4107V16.7708H58.9017V15.4107C57.9106 15.3988 56.9523 14.991 56.2202 14.3512L57.4374 13.125C58.0237 13.6756 58.61 13.9226 59.4106 13.9226C59.9285 13.9226 60.5029 13.7202 60.5029 13.0446C60.5029 12.8065 60.4106 12.6398 60.2648 12.5148L59.4225 12.1398L58.372 11.6726C57.8541 11.4404 57.4136 11.247 56.9731 11.0506L52.4612 9.04163ZM59.3184 4.16961C57.3124 4.16961 55.619 4.87497 54.2321 6.29163C53.8541 6.66961 53.5267 7.06842 53.2499 7.48211L56.6249 8.98806C56.9315 8.05056 57.8214 7.48211 58.9017 7.41961V6.05651H59.9166V7.41961C60.616 7.45235 61.3809 7.64282 62.1368 8.22913L60.9761 9.42259C60.5475 9.11901 60.0059 8.90473 59.4642 8.90473C59.0267 8.90473 58.4077 9.03866 58.4077 9.58925C58.4077 9.67556 58.4345 9.74997 58.485 9.81544L59.616 10.3184L60.3809 10.6577C60.869 10.875 61.3362 11.0833 61.8005 11.2887L66.3273 13.3065C66.4761 12.7113 66.5505 12.0803 66.5505 11.4137C66.5505 9.3958 65.8422 7.68747 64.4285 6.29163C63.0267 4.87497 61.3243 4.16961 59.3184 4.16961Z" fill="black"/>
</svg>
