<svg width="144" height="80" viewBox="0 0 144 80" fill="none" xmlns="http://www.w3.org/2000/svg">
<path d="M80.4646 40C52.7723 40 40.4646 52.3077 40.4646 80C40.4646 52.3077 28.1569 40 0.4646 40C28.1569 40 40.4646 27.6923 40.4646 -2.67696e-06C40.4646 27.6923 52.7723 40 80.4646 40Z" fill="#EDEBE7" stroke="black" stroke-width="1.13093"/>
<path d="M112.001 40C84.3084 40 72.0007 52.3077 72.0007 80C72.0007 52.3077 59.693 40 32.0007 40C59.693 40 72.0007 27.6923 72.0007 -2.67696e-06C72.0007 27.6923 84.3084 40 112.001 40Z" fill="#EDEBE7" stroke="black" stroke-width="1.13093"/>
<path d="M143.535 40C115.843 40 103.535 52.3077 103.535 80C103.535 52.3077 91.2277 40 63.5354 40C91.2277 40 103.535 27.6923 103.535 -2.67696e-06C103.535 27.6923 115.843 40 143.535 40Z" fill="#EDEBE7" stroke="black" stroke-width="1.13093"/>
</svg>
