<svg width="128" height="139" viewBox="0 0 128 139" fill="none" xmlns="http://www.w3.org/2000/svg">
<rect x="2.25" y="74.4129" width="64" height="64" rx="32" fill="#272937" fill-opacity="0.12"/>
<path d="M34.2498 104.996C37.3794 104.996 39.9165 102.459 39.9165 99.3298C39.9165 96.2001 37.3794 93.6631 34.2498 93.6631C31.1202 93.6631 28.5832 96.2001 28.5832 99.3298C28.5832 102.459 31.1202 104.996 34.2498 104.996Z" fill="#272937" fill-opacity="0.35"/>
<path d="M44.9903 112.758C45.3908 113.224 45.5832 113.827 45.5832 114.441V116.33C45.5832 117.895 44.3147 119.163 42.7498 119.163H25.7498C24.185 119.163 22.9165 117.895 22.9165 116.33V114.441C22.9165 113.827 23.1088 113.224 23.5093 112.758C26.1073 109.741 29.9554 107.83 34.2498 107.83C38.5442 107.83 42.3923 109.741 44.9903 112.758Z" fill="#272937" fill-opacity="0.35"/>
<rect x="0.25" y="0.412872" width="64" height="64" rx="32" fill="#272937" fill-opacity="0.12"/>
<path d="M32.2498 30.9964C35.3794 30.9964 37.9165 28.4594 37.9165 25.3298C37.9165 22.2001 35.3794 19.6631 32.2498 19.6631C29.1202 19.6631 26.5832 22.2001 26.5832 25.3298C26.5832 28.4594 29.1202 30.9964 32.2498 30.9964Z" fill="#272937" fill-opacity="0.35"/>
<path d="M42.9903 38.7583C43.3908 39.2236 43.5832 39.8269 43.5832 40.4408V42.3298C43.5832 43.8946 42.3147 45.1631 40.7498 45.1631H23.7498C22.185 45.1631 20.9165 43.8946 20.9165 42.3298V40.4408C20.9165 39.8269 21.1088 39.2236 21.5093 38.7583C24.1073 35.7406 27.9554 33.8298 32.2498 33.8298C36.5442 33.8298 40.3923 35.7406 42.9903 38.7583Z" fill="#272937" fill-opacity="0.35"/>
<rect x="63.75" y="35" width="64" height="64" rx="32" fill="#272937" fill-opacity="0.12"/>
<path d="M95.7498 65.5835C98.8794 65.5835 101.417 63.0465 101.417 59.9169C101.417 56.7873 98.8794 54.2502 95.7498 54.2502C92.6202 54.2502 90.0832 56.7873 90.0832 59.9169C90.0832 63.0465 92.6202 65.5835 95.7498 65.5835Z" fill="#272937" fill-opacity="0.35"/>
<path d="M106.49 73.3455C106.891 73.8107 107.083 74.4141 107.083 75.0279V76.9169C107.083 78.4817 105.815 79.7502 104.25 79.7502H87.2498C85.685 79.7502 84.4165 78.4817 84.4165 76.9169V75.0279C84.4165 74.4141 84.6088 73.8107 85.0093 73.3455C87.6073 70.3277 91.4554 68.4169 95.7498 68.4169C100.044 68.4169 103.892 70.3277 106.49 73.3455Z" fill="#272937" fill-opacity="0.35"/>
</svg>
