<svg width="25" height="25" viewBox="0 0 25 25" fill="none" xmlns="http://www.w3.org/2000/svg">
<path d="M6.87792 3.11458C6.87792 4.4941 7.99288 5.60906 9.37241 5.60906H11.8669V3.11458C11.8669 1.73505 10.7519 0.620087 9.37241 0.620087C7.99288 0.620087 6.87792 1.73505 6.87792 3.11458Z" fill="white"/>
<path d="M11.8669 9.36969C11.8669 7.99017 10.7519 6.87521 9.37241 6.87521H3.11729C1.73776 6.87521 0.622803 7.99017 0.622803 9.36969C0.622803 10.7492 1.73776 11.8642 3.11729 11.8642H9.37241C10.7519 11.8642 11.8669 10.7492 11.8669 9.36969Z" fill="white"/>
<path d="M3.13609 18.1193C4.51562 18.1193 5.63058 17.0044 5.63058 15.6248V13.1303H3.13609C1.75656 13.1303 0.641602 14.2453 0.641602 15.6248C0.641602 17.0044 1.75656 18.1193 3.13609 18.1193Z" fill="white"/>
<path d="M9.37231 13.1303C7.99278 13.1303 6.87782 14.2453 6.87782 15.6248V21.861C6.87782 23.2406 7.99278 24.3555 9.37231 24.3555C10.7518 24.3555 11.8668 23.2406 11.8668 21.861V15.6248C11.8668 14.2453 10.7518 13.1303 9.37231 13.1303Z" fill="white"/>
<path d="M19.3693 9.36969C19.3693 7.99017 20.4842 6.87521 21.8638 6.87521C23.2433 6.87521 24.3583 7.99017 24.3583 9.36969C24.3583 10.7492 23.2433 11.8642 21.8638 11.8642H19.3693V9.36969Z" fill="white"/>
<path d="M18.122 9.36969C18.122 10.7492 17.0071 11.8642 15.6275 11.8642C14.248 11.8642 13.1331 10.7492 13.1331 9.36969V3.11458C13.1331 1.73505 14.248 0.620087 15.6275 0.620087C17.0071 0.620087 18.122 1.73505 18.122 3.11458V9.36969Z" fill="white"/>
<path d="M18.122 21.861C18.122 20.4815 17.0071 19.3666 15.6275 19.3666H13.1331V21.861C13.1331 23.2406 14.248 24.3555 15.6275 24.3555C17.0071 24.3555 18.122 23.2406 18.122 21.861Z" fill="white"/>
<path d="M13.1331 15.6248C13.1331 17.0044 14.248 18.1193 15.6275 18.1193H21.8827C23.2622 18.1193 24.3772 17.0044 24.3772 15.6248C24.3772 14.2453 23.2622 13.1303 21.8827 13.1303H15.6275C14.248 13.1303 13.1331 14.2453 13.1331 15.6248Z" fill="white"/>
</svg>
