<svg width="64" height="65" viewBox="0 0 64 65" fill="none" xmlns="http://www.w3.org/2000/svg">
<path d="M49.5238 50.2857C37.3919 38.1538 26.6081 38.1538 14.4762 50.2857C26.6081 38.1538 26.6081 27.3699 14.4762 15.238C26.6081 27.3699 37.3919 27.3699 49.5238 15.238C37.3919 27.3699 37.3919 38.1538 49.5238 50.2857Z" fill="black"/>
<rect x="42.6667" y="22.0952" width="21.3333" height="21.3333" fill="black" fill-opacity="0.15"/>
<rect y="43.4286" width="21.3333" height="21.3333" fill="black" fill-opacity="0.05"/>
<rect x="21.3333" width="21.3333" height="21.3333" fill="black" fill-opacity="0.05"/>
<path d="M35.2891 48.4212C36.051 48.0403 31.8604 36.5166 34.527 35.8499C37.5746 35.088 38.7177 45.3736 38.7177 45.3736C38.7177 45.3736 38.3367 41.5641 40.6224 41.5641C42.9081 41.5642 43.0476 44.9927 43.0476 44.9927C43.0476 44.9927 43.2891 41.5641 45.5748 41.9451C47.4939 42.265 47.5332 44.1961 47.4964 44.8073C47.5661 44.3382 47.9242 43.162 49.7653 43.4689C52.051 43.8499 51.2891 49.5642 50.5272 51.4689C49.7653 53.3736 47.8605 54.8975 47.4796 56.0403C47.0987 57.1831 48.2414 58.707 47.4796 59.0879C46.7177 59.4688 37.5749 59.8498 36.8129 59.0879C36.051 58.3261 37.1939 57.945 36.8129 57.1832C36.4227 56.4029 34.1459 55.2785 33.0031 53.0884C31.8602 50.8983 27.3123 46.8821 29.5748 45.3736C31.8602 43.8499 34.5272 48.8022 35.2891 48.4212Z" fill="white" stroke="black" stroke-width="0.761905"/>
<path d="M39.6191 48L40.381 53.7143M43.0477 48V52.9524M46.4762 48.7619L45.7143 52.9524" stroke="black" stroke-width="0.761905"/>
</svg>
